<?xml version="1.0" encoding="UTF-8" standalone="no"?>
<svg width="457px" height="561px" viewBox="0 0 457 561" version="1.1" xmlns="http://www.w3.org/2000/svg" xmlns:xlink="http://www.w3.org/1999/xlink" xmlns:sketch="http://www.bohemiancoding.com/sketch/ns">
    <!-- Generator: Sketch 3.2.2 (9983) - http://www.bohemiancoding.com/sketch -->
    <title>Slice 1</title>
    <desc>Created with Sketch.</desc>
    <defs></defs>
    <g id="Page-1" stroke="none" stroke-width="1" fill="none" fill-rule="evenodd" sketch:type="MSPage">
        <g id="Apple_logo_black" sketch:type="MSLayerGroup" fill="#868679">
            <path d="M380.844,297.529 C381.631,382.28 455.193,410.483 456.008,410.843 C455.386,412.832 444.254,451.035 417.252,490.496 C393.91,524.612 369.684,558.603 331.521,559.307 C294.022,559.998 281.964,537.07 239.092,537.07 C196.233,537.07 182.836,558.603 147.339,559.998 C110.502,561.392 82.451,523.106 58.915,489.115 C10.822,419.585 -25.931,292.64 23.419,206.95 C47.935,164.396 91.747,137.449 139.301,136.758 C175.474,136.068 209.617,161.094 231.73,161.094 C253.829,161.094 295.32,130.998 338.938,135.418 C357.198,136.178 408.454,142.794 441.367,190.97 C438.715,192.614 380.208,226.674 380.844,297.529 M310.369,89.418 C329.926,65.745 343.089,32.79 339.498,0 C311.308,1.133 277.22,18.785 257,42.445 C238.879,63.397 223.009,96.932 227.291,129.073 C258.712,131.504 290.811,113.106 310.369,89.418" id="Shape" sketch:type="MSShapeGroup"></path>
        </g>
    </g>
</svg>