<?xml version="1.0" encoding="UTF-8" standalone="no"?>
<svg width="20px" height="26px" viewBox="0 0 20 26" version="1.1" xmlns="http://www.w3.org/2000/svg" xmlns:xlink="http://www.w3.org/1999/xlink" xmlns:sketch="http://www.bohemiancoding.com/sketch/ns">
    <!-- Generator: Sketch 3.2.2 (9983) - http://www.bohemiancoding.com/sketch -->
    <title>Slice 1</title>
    <desc>Created with Sketch.</desc>
    <defs></defs>
    <g id="Page-1" stroke="none" stroke-width="1" fill="none" fill-rule="evenodd" sketch:type="MSPage">
        <path d="M15.5828975,12.6736545 C14.4217775,13.8309029 13.1521775,13.7153933 13.1521775,13.7153933 L13.1521775,8.52897293 L16.5921775,8.52897293 L16.5921775,10.1677182 C16.5921775,11.4182022 16.1516175,12.1067882 15.5828975,12.6736545 L15.5828975,12.6736545 Z M10.7428975,12.6736545 C9.58177752,13.8309029 8.35217752,13.7153933 8.35217752,13.7153933 L8.35217752,8.52897293 L11.7121775,8.52897293 L11.7121775,10.1665589 C11.7121775,11.4182022 11.3116175,12.1067882 10.7428975,12.6736545 L10.7428975,12.6736545 Z M5.90289752,12.6736545 C4.74177752,13.8309029 3.47217752,13.7153933 3.47217752,13.7153933 L3.47217752,8.52897293 L6.91217752,8.52897293 L6.91217752,10.1677182 C6.91217752,11.4214315 6.47161752,12.1067882 5.90289752,12.6736545 L5.90289752,12.6736545 Z M17.0440975,3.11070541 C13.1436175,-0.926498408 6.81945752,-0.926498408 2.91889752,3.11070541 C-0.597902482,6.75070541 -0.932702482,12.4242532 1.89217752,16.4655143 L2.27785752,16.9968583 L9.98137752,25.9177564 L17.7116175,16.9666354 L18.0658575,16.4725525 C20.8963375,12.4308774 20.5630575,6.75294108 17.0440975,3.11070541 L17.0440975,3.11070541 Z" id="what3words_pin-red" fill="#DD404A" sketch:type="MSShapeGroup"></path>
    </g>
</svg>