<?xml version="1.0" standalone="no"?>
<!DOCTYPE svg PUBLIC "-//W3C//DTD SVG 1.1//EN" "http://www.w3.org/Graphics/SVG/1.1/DTD/svg11.dtd" >
<svg xmlns="http://www.w3.org/2000/svg">
<metadata>
Created by FontPrep 20130207 at Tue Mar 10 11:47:38 2015
 By Russell Bishop
Copyright (c) The Font Bureau, Inc, 2003. All rights reserved.
</metadata>
<defs>
<font id="4496937ec8fc87a6d0b245a298ef6e82" horiz-adv-x='1024' >
  <font-face 
    font-family="Whitman-RomanLF"
    font-weight="500"
    font-stretch="normal"
    units-per-em="2048"
    panose-1="2 0 5 3 6 0 0 2 0 4"
    ascent="1434"
    descent="-614"
    x-height="819"
    cap-height="1262"
    bbox="-262 -578 2103 1751"
    underline-thickness="40"
    underline-position="-231"
    unicode-range="U+0020-FB02"
  />
<missing-glyph 
 />
    <glyph glyph-name=".notdef" 
 />
    <glyph glyph-name=".null" horiz-adv-x="0" 
 />
    <glyph glyph-name="nonmarkingreturn" horiz-adv-x="681" 
 />
    <glyph glyph-name="space" unicode=" " horiz-adv-x="450" 
 />
    <glyph glyph-name="exclam" unicode="!" horiz-adv-x="593" 
d="M406 80q0 -43 -31 -74t-74 -31t-73.5 31t-30.5 74t30.5 73.5t73.5 30.5t74 -30.5t31 -73.5zM217 1294h176v-184l-51 -778h-74l-51 778v184z" />
    <glyph glyph-name="quotedbl" unicode="&#x22;" horiz-adv-x="614" 
d="M94 1376h139v-164l-49 -327h-41l-49 327v164zM381 1376h139v-164l-49 -327h-41l-49 327v164z" />
    <glyph glyph-name="numbersign" unicode="#" horiz-adv-x="1153" 
d="M459 782l-41 -303h276l41 303h-276zM1026 782h-197l-41 -303h197l-12 -92h-197l-49 -387h-94l49 387h-276l-50 -387h-94l49 387h-196l12 92h197l41 303h-197l12 92h197l49 388h94l-49 -388h277l49 388h94l-49 -388h196z" />
    <glyph glyph-name="dollar" unicode="$" horiz-adv-x="1075" 
d="M793 301q0 84 -45.5 140.5t-159.5 109.5v-479q92 16 148.5 80.5t56.5 148.5zM289 1004q0 -90 45.5 -138.5t163.5 -103.5v438q-92 -6 -150.5 -56t-58.5 -140zM588 723q191 -85 271.5 -165.5t80.5 -221.5t-101 -239t-251 -111v-162h-90v160q-245 10 -353 73l-10 324l66 6
l43 -205q95 -107 254 -116v524q-187 86 -243 135t-80.5 99t-24.5 157t98 201t250 98v145h90v-147q162 -8 305 -66l-12 -290h-66l-31 186q-74 80 -196 92v-477z" />
    <glyph glyph-name="percent" unicode="%" horiz-adv-x="1536" 
d="M1317 338q0 57 -7 114.5t-24.5 102.5t-46.5 72.5t-72 27.5t-72.5 -27.5t-46 -72.5t-23.5 -102.5t-7 -114.5t7 -114.5t24.5 -102.5t46 -73t71.5 -28t72 28t46.5 73t24.5 102.5t7 114.5zM520 923.5q0 57.5 -7 115t-24.5 102.5t-46 72.5t-71.5 27.5t-73 -27.5t-46 -72.5
t-23.5 -102.5t-7.5 -115t7.5 -114.5t24.5 -102t46 -73t72 -28t71.5 28t46 73t24.5 102t7 114.5zM1371 75.5q-73 -108.5 -204 -108.5t-203.5 109t-72.5 262q0 245 103.5 308t173.5 63t121.5 -32t103 -107t51.5 -231q0 -155 -73 -263.5zM406 -35l-74 47l801 1282l73 -47z
M647 925q0 -154 -71.5 -263t-204.5 -109q-132 0 -204.5 108.5t-72.5 262.5q0 245 103.5 307.5t174.5 62.5t122 -31.5t102 -107.5t51 -230z" />
    <glyph glyph-name="ampersand" unicode="&#x26;" horiz-adv-x="1300" 
d="M221 377q0 -128 82.5 -212.5t210.5 -84.5q90 0 170 46t121 112l-414 428q-170 -108 -170 -289zM682 1047q0 78 -44 130t-122 52t-126 -59.5t-48 -142.5t43 -142.5t98 -116.5q199 101 199 279zM352 707q-147 139 -147 276q0 138 88.5 224.5t222.5 86.5q205 0 251 -100
t46 -162q0 -113 -85.5 -184t-205.5 -121l352 -369l68 281l-133 16v66h446v-66l-182 -16l-141 -338l205 -211l143 -29v-61h-246l-178 184q-95 -141 -208 -179t-191 -38q-167 0 -279 104.5t-112 266.5q0 229 286 369z" />
    <glyph glyph-name="quotesingle" unicode="'" horiz-adv-x="368" 
d="M115 1376h139v-164l-49 -327h-41l-49 327v164z" />
    <glyph glyph-name="parenleft" unicode="(" horiz-adv-x="716" 
d="M106 474q0 279 129.5 516t346.5 407l45 -60q-288 -257 -344 -501t-56 -421.5t105.5 -408t294.5 -397.5l-45 -60q-340 268 -408 524.5t-68 400.5z" />
    <glyph glyph-name="parenright" unicode=")" horiz-adv-x="716" 
d="M610 474q0 -281 -128.5 -518t-346.5 -407l-45 60q188 164 293.5 395t105.5 533t-151.5 509t-247.5 291l45 60q341 -269 408 -524t67 -399z" />
    <glyph glyph-name="asterisk" unicode="*" horiz-adv-x="921" 
d="M516 549h-110v65l36 277l-219 -170l-57 -33l-55 94l57 33l256 107l-256 106l-57 33l55 94l57 -33l219 -170l-36 277v65h110v-65l-37 -277l219 170l58 33l55 -94l-57 -33l-256 -106l256 -107l57 -33l-55 -94l-58 33l-219 170l37 -277v-65z" />
    <glyph glyph-name="plus" unicode="+" horiz-adv-x="1392" 
d="M750 496v-435h-107v435h-412v98h412v434h107v-434h411v-98h-411z" />
    <glyph glyph-name="comma" unicode="," horiz-adv-x="512" 
d="M393 23q0 -117 -65.5 -190t-167.5 -105l-35 65q76 23 129 71t53 128l-170 55q-16 20 -16 58t27.5 69t70.5 31q78 0 126 -54.5t48 -127.5z" />
    <glyph glyph-name="hyphen" unicode="-" horiz-adv-x="573" 
d="M82 373v110l410 49v-110z" />
    <glyph glyph-name="hyphen" unicode="&#xad;" horiz-adv-x="573" 
d="M82 373v110l410 49v-110z" />
    <glyph glyph-name="period" unicode="." horiz-adv-x="512" 
d="M371 90q0 -47 -34 -81t-81 -34t-81 34t-34 81t34 81t81 34t81 -34t34 -81z" />
    <glyph glyph-name="slash" unicode="/" horiz-adv-x="655" 
d="M193 -102h-119l389 1396h119z" />
    <glyph glyph-name="zero" unicode="0" horiz-adv-x="1040" 
d="M786 630.5q0 102.5 -11 207t-42 188.5t-82 137.5t-131 53.5t-131 -53.5t-82 -137.5t-42 -188.5t-11 -207t11 -207t42 -188t82 -137t131 -53.5t131 53.5t82 137t42 188t11 207zM954 631q0 -119 -23.5 -237t-75.5 -213t-134 -154.5t-201 -59.5t-200.5 59.5t-134 154.5
t-76 213t-23.5 237t23.5 236.5t76 213t134 154.5t200.5 59t201 -59t134 -154.5t75.5 -213t23.5 -236.5z" />
    <glyph glyph-name="one" unicode="1" horiz-adv-x="839" 
d="M133 0v70l240 24v1012l-279 -29v58l410 127h16v-1168l240 -24v-70h-627z" />
    <glyph glyph-name="two" unicode="2" horiz-adv-x="1003" 
d="M694 948q0 102 -67.5 179t-196.5 77t-186.5 -89t-75.5 -132l-80 59q57 117 156.5 184.5t205.5 67.5q190 0 299 -93t109 -249q0 -210 -125 -339.5t-186 -190.5l-283 -283v-8h522l56 170l67 -12l-37 -289h-790l-12 78l297 297q61 61 120.5 123.5t105.5 130t73.5 142.5
t27.5 177z" />
    <glyph glyph-name="three" unicode="3" horiz-adv-x="962" 
d="M430 1202q-149 0 -254 -174l-74 66q61 96 153.5 147t184.5 51q162 0 264.5 -79.5t102.5 -219.5q0 -107 -75.5 -195.5t-188.5 -121.5v-4q135 -16 230 -100.5t95 -211.5q0 -174 -137 -285.5t-330 -111.5q-86 0 -177 28.5t-146 76.5l43 90q47 -37 124 -70t147 -33
q138 0 225.5 75t87.5 202q0 126 -84.5 200t-210.5 74q-82 0 -138 -12l-10 102q389 0 389 293q0 98 -61.5 155.5t-159.5 57.5z" />
    <glyph glyph-name="four" unicode="4" horiz-adv-x="1011" 
d="M594 457v575l-440 -575h440zM741 350v-383h-147v383h-545l-29 78l664 866l57 -14v-823h213l-22 -107h-191z" />
    <glyph glyph-name="five" unicode="5" horiz-adv-x="970" 
d="M439 764q190 0 309.5 -104.5t119.5 -284.5t-133.5 -296t-333.5 -116q-199 0 -340 105l37 98q141 -113 314 -113q126 0 211.5 83.5t85.5 228.5t-99.5 215.5t-239.5 70.5t-223 -8l64 619h606l-14 -140h-506l-39 -374q81 16 181 16z" />
    <glyph glyph-name="six" unicode="6" horiz-adv-x="1046" 
d="M721 640.5q-74 82.5 -171 82.5q-172 0 -284 -137q-4 -16 -4 -38v-38q0 -184 67.5 -324.5t211.5 -140.5q105 0 179.5 96t74.5 256q0 161 -74 243.5zM836 102q-118 -135 -319 -135t-312 163.5t-111 408.5q0 348 198.5 560t543.5 212v-86q-502 0 -572 -551q129 145 305 145
t280.5 -120.5t104.5 -291.5q0 -170 -118 -305z" />
    <glyph glyph-name="seven" unicode="7" horiz-adv-x="935" 
d="M926 1262v-33l-400 -819l-166 -443h-176l598 1163h-589l-56 -174l-65 9l49 297h805z" />
    <glyph glyph-name="eight" unicode="8" horiz-adv-x="1067" 
d="M444 637q-186 -122 -186 -288q0 -154 85.5 -229t193.5 -75t188 66.5t80 182.5q0 56 -22.5 95t-81.5 90.5t-257 157.5zM690 1156q-72 61 -162 61t-155.5 -49.5t-65.5 -141.5t63.5 -151t235.5 -156q62 47 109 110t47 164q0 102 -72 163zM102 315q0 220 291 353
q-123 75 -178 141.5t-55 156.5q0 160 110 244t272 84t262.5 -79t100.5 -222q0 -91 -75 -175t-173 -130q162 -93 235 -169.5t73 -182.5q0 -185 -142 -277t-305 -92t-289.5 95.5t-126.5 252.5z" />
    <glyph glyph-name="nine" unicode="9" horiz-adv-x="1040" 
d="M776 796q0 158 -74 289.5t-208 131.5q-107 0 -178.5 -92.5t-71.5 -253.5t78.5 -247.5t187.5 -86.5t174.5 54t87.5 89q4 50 4 116zM766 578q-132 -132 -305 -132t-275 128.5t-102 281.5q0 193 118.5 315.5t315.5 122.5t312.5 -159.5t115.5 -405.5q0 -343 -198 -556.5
t-533 -225.5l-8 86q492 39 559 545z" />
    <glyph glyph-name="colon" unicode=":" horiz-adv-x="573" 
d="M401 90q0 -47 -33.5 -81t-80.5 -34t-81 34t-34 81t34 81t81 34t80.5 -34t33.5 -81zM401 704.5q0 -47.5 -33.5 -81t-80.5 -33.5t-81 33.5t-34 81t34 81t81 33.5t80.5 -33.5t33.5 -81z" />
    <glyph glyph-name="semicolon" unicode=";" horiz-adv-x="573" 
d="M430 23q0 -117 -65.5 -190t-167.5 -105l-35 65q76 23 129 71t53 128l-170 55q-16 20 -16 58t27.5 69t70.5 31q76 0 125 -54.5t49 -127.5zM401 704.5q0 -47.5 -33.5 -81t-80.5 -33.5t-81 33.5t-34 81t34 81t81 33.5t80.5 -33.5t33.5 -81z" />
    <glyph glyph-name="semicolon" unicode="&#x37e;" horiz-adv-x="573" 
d="M430 23q0 -117 -65.5 -190t-167.5 -105l-35 65q76 23 129 71t53 128l-170 55q-16 20 -16 58t27.5 69t70.5 31q76 0 125 -54.5t49 -127.5zM401 704.5q0 -47.5 -33.5 -81t-80.5 -33.5t-81 33.5t-34 81t34 81t81 33.5t80.5 -33.5t33.5 -81z" />
    <glyph glyph-name="less" unicode="&#x3c;" horiz-adv-x="1392" 
d="M199 512v66l921 469v-111l-770 -391l770 -391v-111z" />
    <glyph glyph-name="equal" unicode="=" horiz-adv-x="1392" 
d="M215 315v99h963v-99h-963zM215 676v98h963v-98h-963z" />
    <glyph glyph-name="greater" unicode="&#x3e;" horiz-adv-x="1392" 
d="M272 43v111l770 391l-770 391v111l922 -469v-66z" />
    <glyph glyph-name="question" unicode="?" horiz-adv-x="839" 
d="M408 80q0 -43 -31 -74t-74 -31t-73.5 31t-30.5 74t30.5 73.5t73.5 30.5t74 -30.5t31 -73.5zM279 1321q221 0 356 -120t135 -324q0 -160 -123 -272.5t-297 -112.5v-218h-92v365h74q139 0 229 77.5t90 207.5t-95 220.5t-224 90.5l-191 -100l-55 135q79 51 193 51z" />
    <glyph glyph-name="at" unicode="@" horiz-adv-x="1638" 
d="M894 786q-132 0 -198.5 -123t-66.5 -305t125 -182q80 0 153 106t92 273l23 176q-54 55 -128 55zM813 -264q-301 0 -497.5 189t-196.5 489q0 164 62.5 302t169 239.5t251 158.5t288.5 57q279 0 454.5 -152.5t175.5 -388.5t-119.5 -384t-333.5 -148q-52 0 -98 21v160
q-29 -72 -133 -145t-229.5 -8t-125.5 264q0 75 27 162t108.5 193.5t257.5 106.5q41 0 85.5 -15.5t70.5 -41.5l4 30l113 15h24l-57 -428q-10 -62 -10 -140v-96q151 0 240.5 127t89.5 299q0 228 -152 360t-391 132q-137 0 -256 -50.5t-254 -190t-135 -415.5t164.5 -448
t427.5 -172t456 131l31 -68q-123 -76 -243.5 -110.5t-268.5 -34.5z" />
    <glyph glyph-name="A" unicode="A" horiz-adv-x="1241" 
d="M584 1024l-205 -532h414zM784 0v66l170 16l-129 328h-479l-127 -322l166 -22v-66h-389v70l123 20l471 1172h61l475 -1180l119 -16v-66h-461z" />
    <glyph glyph-name="B" unicode="B" horiz-adv-x="1175" 
d="M590 74q160 0 245 72.5t85 195.5t-88.5 201t-262.5 78h-163v-531q116 -16 184 -16zM543 1188q-69 0 -137 -8v-482h116q152 0 228.5 65.5t76.5 189.5q0 235 -284 235zM594 1262q397 0 397 -297q0 -113 -72 -188t-182 -97v-8q242 -21 294 -127.5t52 -231t-131.5 -219
t-404.5 -94.5h-459v66l160 16v1098l-160 16v66h506z" />
    <glyph glyph-name="C" unicode="C" horiz-adv-x="1267" 
d="M725 59q241 0 414 181l49 -66q-204 -207 -480 -207t-456 180t-180 478t183.5 483.5t481.5 185.5q203 0 348 -61l27 61h66l-17 -370h-65l-33 161q-74 61 -153.5 94t-189.5 33q-211 0 -339.5 -153.5t-128.5 -401.5t91 -373.5t180 -175t202 -49.5z" />
    <glyph glyph-name="D" unicode="D" horiz-adv-x="1382" 
d="M611 74q87 0 192.5 33.5t220.5 139.5t115 375t-145.5 417.5t-418.5 148.5q-99 0 -167 -8v-1090q116 -16 203 -16zM1133 174.5q-184 -174.5 -492 -174.5h-553v66l160 16v1098l-160 16v66h543q308 0 497 -162t189 -456.5t-184 -469z" />
    <glyph glyph-name="E" unicode="E" horiz-adv-x="1099" 
d="M88 0v66l160 16v1098l-160 16v66h885v-287h-74l-29 205h-462v-482h335l21 142h70v-365h-70l-21 141h-335v-530h487l29 221h77v-307h-913z" />
    <glyph glyph-name="F" unicode="F" horiz-adv-x="1052" 
d="M408 1180v-502h335l21 141h70v-364h-70l-21 141h-335v-514l200 -16v-66h-520v66l160 16v1098l-160 16v66h885v-287h-74l-29 205h-462z" />
    <glyph glyph-name="G" unicode="G" horiz-adv-x="1353" 
d="M836 498h446v-58l-80 -24v-322q-66 -47 -192 -87t-284 -40q-296 0 -475 185t-179 477q0 291 183 478t482 187q224 0 369 -61l27 61h65l-16 -370h-66l-33 161q-78 65 -160.5 96t-197.5 31q-214 0 -344.5 -154t-130.5 -410t130 -425.5t353 -169.5q184 0 309 84v279l-206 16
v66z" />
    <glyph glyph-name="H" unicode="H" horiz-adv-x="1482" 
d="M915 0v66l160 16v534h-667v-534l159 -16v-66h-479v66l160 16v1098l-160 16v66h479v-66l-159 -16v-482h667v482l-160 16v66h480v-66l-160 -16v-1098l160 -16v-66h-480z" />
    <glyph glyph-name="I" unicode="I" horiz-adv-x="671" 
d="M96 0v66l160 16v1098l-160 16v66h479v-66l-159 -16v-1098l159 -16v-66h-479z" />
    <glyph glyph-name="J" unicode="J" horiz-adv-x="630" 
d="M416 152q0 -185 -107 -297.5t-291 -112.5l-20 74q135 0 196.5 73.5t61.5 227.5v1063l-160 16v66h479v-66l-159 -16v-1028z" />
    <glyph glyph-name="K" unicode="K" horiz-adv-x="1241" 
d="M408 584v-502l159 -16v-66h-479v66l160 16v1098l-160 16v66h479v-66l-159 -16v-525h26l504 525l-104 16v66h364v-66l-147 -16l-473 -494l538 -598l125 -22v-66h-262l-510 584h-61z" />
    <glyph glyph-name="L" unicode="L" horiz-adv-x="1036" 
d="M88 0v66l160 16v1098l-160 16v66h500v-66l-180 -16v-1094h466l33 233h78v-319h-897z" />
    <glyph glyph-name="M" unicode="M" horiz-adv-x="1761" 
d="M1210 0v66l160 16l-57 969l-463 -1051h-25l-458 1010l-52 -920l160 -24v-66h-420v66l160 24l64 1086l-164 20v66h309l448 -998l439 998h317v-66l-164 -16l66 -1098l160 -16v-66h-480z" />
    <glyph glyph-name="N" unicode="N" horiz-adv-x="1449" 
d="M1225 -8h-51l-838 1026v-928l160 -24v-66h-418v66l160 24v1040l-39 48l-121 18v66h264l784 -967v876l-159 25v66h417v-66l-159 -25v-1179z" />
    <glyph glyph-name="O" unicode="O" horiz-adv-x="1421" 
d="M1028.5 1052q-134.5 160 -321.5 160t-318 -153t-131 -420t135 -428.5t323 -161.5t317.5 151t129.5 421q0 271 -134.5 431zM1341 641.5q0 -149.5 -48 -273.5t-133 -213t-201.5 -138.5t-254 -49.5t-252 46t-197.5 131t-129 206t-46 270.5t48 273.5t133 213t202 138t254 49
t251.5 -46t197.5 -131t129 -205.5t46 -270z" />
    <glyph glyph-name="P" unicode="P" horiz-adv-x="1069" 
d="M535 575q65 0 194 52.5t129 279.5q0 145 -87 213t-228 68q-39 0 -135 -8v-600q62 -5 127 -5zM530 502q-90 0 -122 4v-424l180 -16v-66h-500v66l160 16v1098l-160 16v66h506q189 0 310.5 -90t121.5 -242q0 -191 -102.5 -277t-203 -118.5t-190.5 -32.5z" />
    <glyph glyph-name="Q" unicode="Q" horiz-adv-x="1421" 
d="M1028.5 1052q-134.5 160 -321.5 160t-318 -153t-131 -420t135 -428.5t323 -161.5t317.5 151t129.5 421q0 271 -134.5 431zM80 623q0 299 182 485t457 186t448.5 -179.5t173.5 -460.5t-147 -461.5t-373 -215.5q212 -133 471 -204l115 86l35 -33l-150 -213
q-219 56 -618 354q-119 0 -255.5 62t-237.5 210t-101 384z" />
    <glyph glyph-name="R" unicode="R" horiz-adv-x="1210" 
d="M543 1188q-63 0 -135 -8v-559h100q154 0 244 73.5t90 225.5q0 268 -299 268zM588 0h-500v66l160 16v1098l-160 16v66h506q289 0 352.5 -116t63.5 -200q0 -133 -77 -225t-206 -131l375 -502l125 -22v-66h-260l-385 551l-174 -16v-453l180 -16v-66z" />
    <glyph glyph-name="S" unicode="S" horiz-adv-x="1009" 
d="M512 1212q-101 0 -170.5 -57t-69.5 -146t53.5 -139t190.5 -118t200.5 -106t131 -105.5t67.5 -213.5t-121 -253t-292 -107t-285 64l-24 -64h-66l-12 418l65 6l43 -196q107 -138 266 -138q121 0 200 64.5t79 166.5t-66 162t-194 121q-129 60 -192.5 100t-124 105t-60.5 202
t109.5 226.5t263.5 89.5t262 -57l25 57h65l-8 -370h-66l-37 180q-79 108 -233 108z" />
    <glyph glyph-name="T" unicode="T" horiz-adv-x="1134" 
d="M1094 934h-74l-29 246h-344v-1098l180 -16v-66h-520v66l180 16v1098h-344l-28 -246h-74v328h1053v-328z" />
    <glyph glyph-name="U" unicode="U" horiz-adv-x="1370" 
d="M723 70q356 0 356 438v663l-159 25v66h417v-66l-159 -25v-698q0 -354 -179.5 -430t-302.5 -76q-238 0 -360.5 136.5t-122.5 369.5v707l-160 16v66h479v-66l-159 -16v-668q0 -324 125 -383t225 -59z" />
    <glyph glyph-name="V" unicode="V" horiz-adv-x="1236" 
d="M0 1262h467v-66l-172 -16l362 -914l361 908l-166 22v66h393v-66l-127 -25l-475 -1187h-37l-483 1196l-123 16v66z" />
    <glyph glyph-name="W" unicode="W" horiz-adv-x="1781" 
d="M0 1262h461v-66l-170 -16l313 -891l248 678l-78 213l-125 16v66h471v-66l-170 -16v-21l303 -870l314 885l-164 22v66h383v-66l-121 -25l-426 -1187h-37l-301 847l-315 -847h-37l-428 1196l-121 16v66z" />
    <glyph glyph-name="X" unicode="X" horiz-adv-x="1253" 
d="M776 0v66l150 16l-328 479l-324 -475l146 -20v-66h-412v66l162 28l375 543l-381 543l-133 16v66h471v-66l-148 -16l295 -432l289 428l-145 20v66h405v-66l-154 -29l-342 -495l414 -590l133 -16v-66h-473z" />
    <glyph glyph-name="Y" unicode="Y" horiz-adv-x="1159" 
d="M823 0h-479v66l160 16v434l-371 664l-119 16v66h467v-66l-168 -16l305 -559l306 555l-158 20v66h379v-66l-123 -25l-358 -643v-446l159 -16v-66z" />
    <glyph glyph-name="Z" unicode="Z" horiz-adv-x="1126" 
d="M113 934v328h942v-33l-797 -1143h684l55 254h74l-20 -340h-1004l-12 33l803 1147h-619l-33 -246h-73z" />
    <glyph glyph-name="bracketleft" unicode="[" horiz-adv-x="655" 
d="M164 -430v1806h364v-57l-249 -16v-1659l249 -17v-57h-364z" />
    <glyph glyph-name="backslash" unicode="\" horiz-adv-x="655" 
d="M463 -102l-389 1396h119l389 -1396h-119z" />
    <glyph glyph-name="bracketright" unicode="]" horiz-adv-x="655" 
d="M127 -430v57l250 17v1659l-250 16v57h365v-1806h-365z" />
    <glyph glyph-name="asciicircum" unicode="^" horiz-adv-x="614" 
d="M102 545v110l410 50v-111z" />
    <glyph glyph-name="underscore" unicode="_" 
d="M0 -250v86h1024v-86h-1024z" />
    <glyph glyph-name="grave" unicode="`" 
d="M610 926l-321 317l108 90l248 -381z" />
    <glyph glyph-name="a" unicode="a" horiz-adv-x="860" 
d="M207 225q0 -149 171 -149q81 0 163 82v264l-142 -27q-192 -34 -192 -170zM787 72q42 0 69 32l23 -36q-23 -29 -73 -61t-104 -32t-94.5 37t-56.5 86q-74 -74 -143.5 -98.5t-98.5 -24.5q-104 0 -173.5 57.5t-69.5 160.5q0 203 276 251l199 37v129q0 84 -36 120t-124 36
q-129 0 -227 -143l-58 53q51 76 134 126t180 50q279 0 278 -225v-420q0 -82 28.5 -108.5t70.5 -26.5z" />
    <glyph glyph-name="b" unicode="b" horiz-adv-x="980" 
d="M762 432q0 234 -88 284t-160 50t-130 -41t-91 -107v-516q23 -23 76 -39t108 -16q131 0 208 105.5t77 279.5zM551 852q160 0 264.5 -112t104.5 -312q0 -199 -125 -326t-328 -127t-322 66v1221l-133 22v53l281 39v-653q37 47 107.5 88t150.5 41z" />
    <glyph glyph-name="c" unicode="c" horiz-adv-x="862" 
d="M471 -25q-78 0 -154.5 32t-166 124.5t-89.5 283.5q0 190 125.5 313.5t294.5 123.5q74 0 124 -10.5t110 -40.5l22 51h49l-12 -256h-53q-16 84 -74.5 135t-167.5 51t-182.5 -91t-73.5 -257t82 -267t192 -101q186 0 271 106l41 -39q-62 -68 -108 -96.5t-99 -45t-131 -16.5z
" />
    <glyph glyph-name="d" unicode="d" horiz-adv-x="1001" 
d="M480 780q-126 0 -193.5 -109t-67.5 -264t74 -250.5t176 -95.5t149.5 48.5t69.5 105.5v447q-29 49 -85 83.5t-123 34.5zM688 106q-96 -131 -241 -131q-161 0 -273.5 110.5t-112.5 306.5t115.5 328t273.5 132q157 0 238 -86v496l-133 22v53l281 39v-1282l133 -22v-54
l-273 -38v124z" />
    <glyph glyph-name="e" unicode="e" horiz-adv-x="886" 
d="M659 526q0 117 -29.5 167t-66.5 71.5t-96 21.5q-92 0 -156.5 -68.5t-81.5 -191.5h430zM223 459v-23q0 -170 81 -270t192 -100q187 0 272 106l41 -39q-62 -68 -135 -113t-179 -45t-182.5 32t-132 89.5t-87.5 138t-32 225.5t125 268.5t290 123.5t253 -94t88 -248v-51h-594z
" />
    <glyph glyph-name="f" unicode="f" horiz-adv-x="589" 
d="M338 1135v-316h252v-82h-252v-663l197 -17v-57h-478v57l133 17v663h-133v54l133 40v193q0 165 88.5 277t237.5 112q112 0 174 -45l-49 -129l-188 100q-41 0 -78 -52t-37 -152z" />
    <glyph glyph-name="g" unicode="g" horiz-adv-x="897" 
d="M752 -237q0 120 -146 135l-375 36q-33 -23 -61.5 -65.5t-28.5 -91.5q0 -99 81 -173.5t229 -74.5q100 0 200.5 62t100.5 172zM610 538.5q0 116.5 -54 182t-138 65.5t-138.5 -65.5t-54.5 -182t54.5 -182t138.5 -65.5t138 65.5t54 182zM672 741q90 -79 90 -208t-102 -214
t-242 -94q-191 -16 -191 -108q0 -34 25 -56l377 -38q153 -16 193 -87.5t40 -137.5t-34.5 -130.5t-130.5 -137.5t-308 -73q-148 0 -256 74t-108 201q0 86 48 140t107 83q-71 40 -71 103t36.5 110t114.5 78v14q-80 41 -133 106.5t-53 153.5q0 152 101 242t226 90
q126 0 213 -55l275 55v-131l-215 24z" />
    <glyph glyph-name="h" unicode="h" horiz-adv-x="1050" 
d="M592 0v57l147 17v631q-31 37 -66.5 49t-89.5 12t-102.5 -32t-97.5 -113t-49 -230v-317l147 -17v-57h-428v57l133 17v1188l-133 22v53l281 39v-729q39 92 114.5 148.5t187.5 56.5t181.5 -76t69.5 -198v-504l133 -17v-57h-428z" />
    <glyph glyph-name="i" unicode="i" horiz-adv-x="540" 
d="M70 0v57l133 17v651l-133 23v53l280 51v-778l133 -17v-57h-413zM360 1141q0 -41 -28.5 -70t-69.5 -29t-69.5 29t-28.5 70t28.5 69.5t69.5 28.5t69.5 -28.5t28.5 -69.5z" />
    <glyph glyph-name="j" unicode="j" horiz-adv-x="489" 
d="M336 -123q0 -139 -70.5 -240.5t-220.5 -179.5l-29 54q97 49 134.5 128.5t37.5 217.5v868l-133 23v53l281 51v-975zM346 1141q0 -41 -28.5 -70t-69.5 -29t-69.5 29t-28.5 70t28.5 69.5t69.5 28.5t69.5 -28.5t28.5 -69.5z" />
    <glyph glyph-name="k" unicode="k" horiz-adv-x="956" 
d="M326 420v-346l147 -17v-57h-428v57l133 17v1188l-133 22v53l281 39v-917h4l323 282l-116 19v59h362v-59l-133 -19l-283 -241l383 -418l107 -33v-49h-234l-364 420h-49z" />
    <glyph glyph-name="l" unicode="l" horiz-adv-x="528" 
d="M57 0v57l133 17v1188l-133 22v53l281 39v-1302l133 -17v-57h-414z" />
    <glyph glyph-name="m" unicode="m" horiz-adv-x="1585" 
d="M633 852q196 0 239 -205h7q35 86 110 145.5t185 59.5t174.5 -76t64.5 -198v-504l133 -17v-57h-428v57l148 17v626q-50 66 -148 66t-167.5 -110.5t-69.5 -264.5v-317l147 -17v-57h-442v57l147 17v626q-50 66 -147 66t-167.5 -110t-70.5 -265v-317l148 -17v-57h-428v57
l133 17v651l-133 23v53l272 43v-195l8 -2q35 86 108.5 145.5t176.5 59.5z" />
    <glyph glyph-name="n" unicode="n" horiz-adv-x="1073" 
d="M754 705q-51 61 -160 61t-177.5 -113t-68.5 -262v-317l148 -17v-57h-428v57l133 17v651l-133 23v53l272 43v-195l8 -2q39 92 114.5 148.5t187.5 56.5t181.5 -76t69.5 -198v-504l133 -17v-57h-428v57l148 17v631z" />
    <glyph glyph-name="o" unicode="o" horiz-adv-x="966" 
d="M741 413.5q0 182.5 -70.5 277.5t-187 95t-187.5 -95t-71 -277.5t71 -277.5t187.5 -95t187 95t70.5 277.5zM905 413.5q0 -98.5 -32.5 -179t-90 -138t-134.5 -89.5t-165 -32t-164.5 32t-134 89.5t-90.5 138t-33 179t33 179.5t90.5 138t134 89t164.5 32t165 -32t134.5 -89
t90 -138t32.5 -179.5z" />
    <glyph glyph-name="p" unicode="p" horiz-adv-x="1005" 
d="M317 119q73 -72 199 -72q60 0 165 65.5t105 313.5q0 160 -63.5 250t-179.5 90q-80 0 -138.5 -44t-87.5 -108v-495zM506 -526h-469v57l133 16v1178l-133 23v53l272 43v-123l8 -2q39 51 107 92t151 41q158 0 263.5 -109.5t105.5 -306.5t-121 -329t-325 -132q-112 0 -181 45
v-473l189 -16v-57z" />
    <glyph glyph-name="q" unicode="q" horiz-adv-x="972" 
d="M480 780q-127 0 -194 -108.5t-67 -266.5t73 -251t173 -93t150.5 48.5t72.5 105.5v447q-29 49 -85 83.5t-123 34.5zM688 106q-96 -131 -241 -131q-161 0 -273.5 110.5t-112.5 311.5t112 328t292 127q140 0 233 -74l121 84l17 -10v-1305l133 -16v-57h-469v57l188 16v559z
" />
    <glyph glyph-name="r" unicode="r" horiz-adv-x="724" 
d="M346 436v-362l191 -17v-57h-469v57l133 17v651l-133 23v53l266 41v-191l8 -2q49 117 111.5 160t130.5 43t121 -51l-56 -137l-157 84q-63 -31 -104.5 -115t-41.5 -197z" />
    <glyph glyph-name="s" unicode="s" horiz-adv-x="729" 
d="M385 852q80 0 160 -45l24 45h45l-4 -248h-53q-31 182 -195 182q-70 0 -105.5 -42t-35.5 -82t15.5 -65.5t41 -46t60.5 -35.5l77 -33q108 -48 170 -103.5t62 -154.5t-78 -176t-203 -77t-208 52l-21 -52h-45l-10 279l53 4q45 -217 219 -217q68 0 113 41t45 91t-14.5 76.5
t-47 54t-100.5 56.5q-131 56 -191.5 107t-60.5 152t78 169t209 68z" />
    <glyph glyph-name="t" unicode="t" horiz-adv-x="626" 
d="M376 -20q-85 0 -144.5 56t-59.5 177v524h-137v54l131 51l100 250h49v-273h252v-82h-252v-499q0 -86 37 -127t96.5 -41t93 22.5t48.5 36.5l28 -35q-35 -45 -96 -79.5t-146 -34.5z" />
    <glyph glyph-name="u" unicode="u" horiz-adv-x="1032" 
d="M713 436v303l-148 23v57h295v-725l133 -22v-54l-272 -38v198l-8 2q-39 -92 -115 -148.5t-188 -56.5t-181 76t-69 199v489l-133 23v57h280v-692q49 -66 158 -66t178.5 112.5t69.5 262.5z" />
    <glyph glyph-name="v" unicode="v" horiz-adv-x="868" 
d="M-16 819h399v-57l-137 -17l219 -540l229 536l-135 21v57h326v-59l-105 -21l-334 -772h-24l-334 778l-104 17v57z" />
    <glyph glyph-name="w" unicode="w" horiz-adv-x="1382" 
d="M-16 819h399v-57l-137 -17l219 -540l184 430l-47 110l-104 17v57h399v-57l-129 -17v-20l211 -520l229 536l-135 21v57h326v-59l-105 -21l-333 -772h-25l-244 570l-246 -570h-24l-334 778l-104 17v57z" />
    <glyph glyph-name="x" unicode="x" horiz-adv-x="890" 
d="M492 0v57l112 17l-180 266l-180 -266l116 -17v-57h-340v57l132 21l227 325l-246 342l-110 17v57h383v-57l-109 -17l164 -243l164 243l-109 17v57h332v-57l-129 -21l-213 -303l262 -364l111 -17v-57h-387z" />
    <glyph glyph-name="y" unicode="y" horiz-adv-x="868" 
d="M-16 819h399v-57l-137 -17l225 -559l223 557l-135 19v57h326v-59l-105 -21l-317 -755l-176 -510h-140l248 536l-307 735l-104 17v57z" />
    <glyph glyph-name="z" unicode="z" horiz-adv-x="845" 
d="M94 586v233h680v-33l-534 -712h452l31 205h65l-8 -279h-719l-12 33l535 712h-404l-20 -159h-66z" />
    <glyph glyph-name="braceleft" unicode="{" horiz-adv-x="716" 
d="M291 322.5q0 121.5 -205 121.5v58q109 0 157 39t48 122.5t-20.5 217t-20.5 218.5q0 147 98.5 222.5t241.5 75.5v-58q-85 0 -151 -51t-66 -124q0 -104 20.5 -246t20.5 -227t-53.5 -139t-131.5 -75v-8q78 -20 131.5 -74.5t53.5 -127.5q0 -97 -20.5 -239t-20.5 -211
t18.5 -102.5t65.5 -70.5t133 -37v-58q-143 0 -241.5 75.5t-98.5 209.5q0 100 20.5 233.5t20.5 255z" />
    <glyph glyph-name="bar" unicode="|" horiz-adv-x="512" 
d="M199 -578v2003h114v-2003h-114z" />
    <glyph glyph-name="braceright" unicode="}" horiz-adv-x="716" 
d="M631 444q-205 0 -205 -122.5t20.5 -256t20.5 -218.5q0 -147 -99.5 -222.5t-240.5 -75.5v58q86 0 151.5 51.5t65.5 122.5q0 106 -20.5 242.5t-20.5 226.5t53.5 144.5t130.5 74.5v8q-78 20 -131 74.5t-53 127.5q0 109 20.5 242.5t20.5 205.5q0 71 -18.5 105t-66 70.5
t-132.5 36.5v58q141 0 240.5 -75.5t99.5 -191.5t-14.5 -210.5t-20.5 -151.5t-6 -122.5t48 -104.5t157 -39v-58z" />
    <glyph glyph-name="asciitilde" unicode="~" horiz-adv-x="1331" 
d="M855 399q-52 0 -107.5 28t-110.5 60.5t-108.5 60t-106.5 27.5t-109.5 -50t-95.5 -115l-45 28q65 121 136 189.5t171 68.5q49 0 104.5 -27.5t111 -60.5t108.5 -60.5t106 -27.5t109.5 50.5t95.5 115.5l45 -29q-63 -119 -111.5 -166t-94.5 -69.5t-98 -22.5z" />
    <glyph glyph-name="nonbreakingspace" unicode="&#xa0;" horiz-adv-x="225" 
 />
    <glyph glyph-name="exclamdown" unicode="&#xa1;" horiz-adv-x="593" 
d="M213 -467v184l51 779h74l51 -779v-184h-176zM406 748q0 -43 -31 -74t-74 -31t-73.5 31t-30.5 74t30.5 73.5t73.5 30.5t74 -30.5t31 -73.5z" />
    <glyph glyph-name="cent" unicode="&#xa2;" horiz-adv-x="972" 
d="M258 637q0 -151 68 -249t176 -124v725q-111 -14 -177.5 -107.5t-66.5 -244.5zM588 -33h-86v205q-178 12 -292 132.5t-114 307t122.5 309t283.5 134.5v198h86v-198q125 -8 203 -49l22 51h49l-12 -256h-53q-29 168 -209 188v-731q98 4 161.5 37t94.5 74l41 -39
q-123 -138 -297 -156v-207z" />
    <glyph glyph-name="sterling" unicode="&#xa3;" horiz-adv-x="1097" 
d="M536.5 20q-141.5 19 -205.5 19t-100 -16l-106 -68l-41 68l82 53q67 43 88.5 104t21.5 201v194h-176v87h176v172q0 206 107 333t307 127q151 0 248 -88l-82 -147l-205 170q-94 0 -152.5 -79t-58.5 -214v-274h355v-87h-355v-83q0 -121 -33.5 -212.5t-119.5 -158.5l4 -6
q84 41 174 41q177 0 424 -78q46 52 55 149l57 -8q0 -80 -32.5 -157.5t-85.5 -127.5q-205 67 -346.5 86z" />
    <glyph glyph-name="currency" unicode="&#xa4;" horiz-adv-x="1359" 
d="M838 1294q156 0 340 -65l-13 -293h-65l-29 180q-55 57 -123 76.5t-162 19.5q-167 0 -261 -117.5t-122 -306.5h646l-25 -81h-629v-52q0 -63 6 -125h566l-25 -81h-526q53 -279 185 -339.5t208 -60.5q167 0 258 68l41 182h66l-13 -266q-162 -66 -382 -66t-358.5 130.5
t-176.5 351.5h-183l25 81h145q-4 46 -4 90t4 87h-170l25 81h154q37 229 143 331t202.5 138.5t252.5 36.5z" />
    <glyph glyph-name="yen" unicode="&#xa5;" horiz-adv-x="1302" 
d="M1122 750v-82h-319l-74 -140v-36h393v-82h-393v-328l162 -16v-66h-479v66l161 16v328h-393v82h393v36l-71 140h-322v82h279l-226 430l-118 16v66h465v-66l-168 -16l280 -557l279 553l-166 20v66h383v-66l-123 -25l-221 -421h278z" />
    <glyph glyph-name="brokenbar" unicode="&#xa6;" horiz-adv-x="512" 
d="M199 -578v805h114v-805h-114zM199 621v804h114v-804h-114z" />
    <glyph glyph-name="section" unicode="&#xa7;" 
d="M758 451q0 33 -13.5 55t-48.5 51l-346 291q-25 -16 -46 -47t-21 -69t16 -62.5t47 -51.5l342 -290q70 52 70 123zM868 504q0 -126 -137 -213q45 -39 77 -78t32 -127t-101 -163t-253 -75t-289 95l-9 213l58 6l39 -154q41 -35 103.5 -58.5t111.5 -23.5q92 0 160.5 44.5
t68.5 117.5l-399 340q-63 53 -110.5 109.5t-47.5 133.5t38 124t99 88q-47 41 -77.5 84t-30.5 132t87.5 158.5t219.5 69.5t207 -35l18 35h58v-289h-58l-39 156q-69 59 -168 59t-157 -41t-58 -108l2 -10v-7l392 -329q80 -68 121.5 -125t41.5 -129z" />
    <glyph glyph-name="dieresis" unicode="&#xa8;" 
d="M430 1106q0 -37 -26.5 -63.5t-63.5 -26.5t-63.5 26.5t-26.5 63.5t26.5 63.5t63.5 26.5t63.5 -26.5t26.5 -63.5zM774 1106q0 -37 -26.5 -63.5t-63.5 -26.5t-63.5 26.5t-26.5 63.5t26.5 63.5t63.5 26.5t63.5 -26.5t26.5 -63.5z" />
    <glyph glyph-name="copyright" unicode="&#xa9;" horiz-adv-x="1536" 
d="M1071 199q-129 -101 -293 -101q-171 0 -282 103.5t-111 271.5t112 273.5t285 105.5q123 0 207 -41l10 41h54l-9 -221h-53l-16 94q-85 61 -203 61t-185 -87t-67 -221q0 -135 75 -224.5t206 -89.5t239 92zM1325 475q0 117 -44 220.5t-119 181t-176 122.5t-218 45t-218 -45
t-176 -122.5t-119 -181t-44 -220.5t44 -220t119 -181t176 -123t218 -45t218 45t176 123t119 181t44 220zM1415 475q0 -135 -51 -253t-138 -205t-205 -138t-253 -51t-253 51t-205 138t-138 205t-51 253t51 253t138 205t205 138t253 51t253 -51t205 -138t138 -205t51 -253z
" />
    <glyph glyph-name="ordfeminine" unicode="&#xaa;" horiz-adv-x="649" 
d="M286.5 768q42.5 0 102.5 49v178l-92 -16q-117 -25 -117 -113q0 -52 32 -75t74.5 -23zM283 1217q-81 0 -146 -97l-45 41q33 49 91.5 83t138.5 34t131 -42t51 -120v-266q0 -53 18 -68.5t46 -15.5t46 18l11 -26q-14 -18 -51 -39t-76 -21q-74 0 -103 76q-88 -76 -160 -76
t-116.5 38t-44.5 111q0 129 174 165l141 26v70q0 109 -106 109z" />
    <glyph glyph-name="guillemotleft" unicode="&#xab;" 
d="M467 74l-344 356l344 356l41 -32l-217 -324l217 -324zM825 74l-344 356l344 356l41 -32l-217 -324l217 -324z" />
    <glyph glyph-name="logicalnot" unicode="&#xac;" horiz-adv-x="1282" 
d="M180 516v98h922v-98h-922z" />
    <glyph glyph-name="registered" unicode="&#xae;" horiz-adv-x="1064" 
d="M530 1061q-35 0 -67 -4v-221h41q127 -1 127 120q0 53 -33 79t-68 26zM528 580h-217v34l66 9v434l-66 8v35h228q78 0 131 -32t53 -95q0 -118 -111 -156l146 -192l53 -11v-34h-131l-145 217l-72 -6v-168l65 -9v-34zM922 836q0 82 -30 154.5t-82 128t-124 87t-153.5 31.5
t-153.5 -31.5t-124 -87t-82 -128t-30 -154.5t30 -155t82 -128t124 -87t153.5 -32t153.5 32t124 87t82 128t30 155zM855.5 510.5q-135.5 -131.5 -323.5 -131.5q-189 0 -323.5 131.5t-134.5 324.5q0 192 133 325.5t325 133.5t325.5 -133.5t133.5 -325.5q0 -193 -135.5 -324.5z
" />
    <glyph glyph-name="macron" unicode="&#xaf;" 
d="M225 1059v98h574v-98h-574z" />
    <glyph glyph-name="macron" unicode="&#x2c9;" 
d="M225 1059v98h574v-98h-574z" />
    <glyph glyph-name="degree" unicode="&#xb0;" horiz-adv-x="675" 
d="M156 1020q0 -80 52 -136.5t130 -56.5t130 56.5t52 136.5t-53.5 136t-129.5 56t-128.5 -56t-52.5 -136zM610 1020q0 -57 -21.5 -107.5t-58 -87.5t-87 -58.5t-105.5 -21.5t-105.5 21.5t-87 58.5t-58 87.5t-21.5 107.5t21.5 107.5t58 87t87 58t105.5 21.5t105.5 -21.5
t87 -58t58 -87t21.5 -107.5z" />
    <glyph glyph-name="plusminus" unicode="&#xb1;" horiz-adv-x="1646" 
d="M739 1018q0 83 37 178l-102 107q-43 25 -94 24q-129 0 -185.5 -78t-56.5 -207v-223h401v199zM1116 1413q114 0 217 -59l123 22v-1302l133 -17v-57h-413v57l133 17v1134l-88 105q-47 35 -109 35q-225 0 -225 -285v-244h313v-82h-313v-663l196 -17v-57h-477v57l133 17v663
h-401v-663l197 -17v-57h-478v57l133 17v663h-133v54l133 40v166q0 170 109 283t270 113q88 0 147.5 -23.5t125.5 -75.5q106 119 274 119z" />
    <glyph glyph-name="twosuperior" unicode="&#xb2;" horiz-adv-x="679" 
d="M330 1298q107 0 180.5 -53.5t73.5 -158.5t-71 -165.5t-116 -95.5l-178 -141v-6h322l41 110l51 -10l-27 -207h-543l-14 64l182 145q127 100 172.5 158.5t45.5 133.5t-38 115t-106 40q-105 0 -170 -123l-55 53q93 141 250 141z" />
    <glyph glyph-name="threesuperior" unicode="&#xb3;" horiz-adv-x="679" 
d="M322 1296q96 0 168.5 -46.5t72.5 -121.5q0 -74 -53 -118.5t-125 -61.5v-4q85 -8 148 -56.5t63 -109.5q0 -110 -88.5 -174.5t-209.5 -64.5t-214 65l35 70q75 -62 159 -62q183 0 183 144q0 72 -46 105.5t-107 33.5t-105 -8l-6 76h16q92 0 155.5 32.5t63.5 120.5
q0 59 -40 85t-93 26q-98 0 -145 -84l-56 55q76 98 224 98z" />
    <glyph glyph-name="acute" unicode="&#xb4;" 
d="M414 926l-35 26l248 381l108 -90z" />
    <glyph glyph-name="mu" unicode="&#xb5;" 
d="M907 70q65 0 97 43l32 -41q-31 -49 -86 -73t-102 -24q-99 0 -141 58v129l-9 2q-97 -189 -284 -189q-115 0 -183 84l-4 -4l33 -497h-147l32 540v721h148v-665q20 -47 67.5 -70t101.5 -23q104 0 170 102t66 236v420h148v-729q27 -20 61 -20z" />
    <glyph glyph-name="mu" unicode="&#x3bc;" 
d="M907 70q65 0 97 43l32 -41q-31 -49 -86 -73t-102 -24q-99 0 -141 58v129l-9 2q-97 -189 -284 -189q-115 0 -183 84l-4 -4l33 -497h-147l32 540v721h148v-665q20 -47 67.5 -70t101.5 -23q104 0 170 102t66 236v420h148v-729q27 -20 61 -20z" />
    <glyph glyph-name="paragraph" unicode="&#xb6;" horiz-adv-x="1001" 
d="M674 1188h-189v-621q0 -111 39 -163t150 -52v836zM768 -287h-94v566q-269 0 -443 127t-174 360t142 364.5t381 131.5h348v-66l-160 -16v-1467z" />
    <glyph glyph-name="periodcentered" unicode="&#xb7;" horiz-adv-x="512" 
d="M371 524q0 -47 -34 -80.5t-81 -33.5t-81 33.5t-34 80.5t34 81t81 34t81 -34t34 -81z" />
    <glyph glyph-name="periodcentered" unicode="&#x2219;" horiz-adv-x="512" 
d="M371 524q0 -47 -34 -80.5t-81 -33.5t-81 33.5t-34 80.5t34 81t81 34t81 -34t34 -81z" />
    <glyph glyph-name="cedilla" unicode="&#xb8;" 
d="M440 -455q59 0 99.5 29t40.5 67t-7.5 56t-35.5 40.5t-148 53.5l117 209h57l-28 -141q163 -45 163 -170q0 -103 -75.5 -159t-190.5 -56q-66 0 -123 28l25 68q47 -25 106 -25z" />
    <glyph glyph-name="onesuperior" unicode="&#xb9;" horiz-adv-x="679" 
d="M160 569v54l139 16v545h-152v49l275 57v-651l139 -16v-54h-401z" />
    <glyph glyph-name="ordmasculine" unicode="&#xba;" horiz-adv-x="696" 
d="M504 991q0 121 -42 178.5t-114 57.5t-113.5 -57.5t-41.5 -178.5t41.5 -179t113.5 -58t114 58t42 179zM550.5 784.5q-80.5 -82.5 -202.5 -82.5t-202 83t-80 207t80 205t202 81q121 0 202 -81t81 -205q0 -125 -80.5 -207.5z" />
    <glyph glyph-name="guillemotright" unicode="&#xbb;" 
d="M199 74l-41 32l217 324l-217 324l41 32l344 -356zM557 74l-41 32l217 324l-217 324l41 32l344 -356z" />
    <glyph glyph-name="onequarter" unicode="&#xbc;" horiz-adv-x="1536" 
d="M1176 258v322l-279 -322h279zM1298 168v-217h-122v217h-363l-16 72l379 436l59 86l72 -14l-9 -164v-326h138l-17 -90h-121zM369 -35l-74 47l801 1282l73 -47zM111 569v54l139 16v545h-152v49l279 57v-651l139 -16v-54h-405z" />
    <glyph glyph-name="onehalf" unicode="&#xbd;" horiz-adv-x="1536" 
d="M1135 727q106 0 180 -54t74 -159t-71 -165t-116 -95l-178 -141v-7h322l40 111l52 -10l-27 -207h-543l-14 63l182 146q126 100 171.5 157t45.5 134q0 76 -37.5 115.5t-105.5 39.5q-106 0 -170 -123l-55 54q93 141 250 141zM348 -35l-74 47l801 1282l74 -47zM90 569v54
l139 16v545h-151v49l278 57v-651l140 -16v-54h-406z" />
    <glyph glyph-name="threequarters" unicode="&#xbe;" horiz-adv-x="1536" 
d="M1176 258v322l-279 -322h279zM1298 168v-217h-122v217h-363l-16 72l379 436l59 86l72 -14l-9 -164v-326h138l-17 -90h-121zM369 -35l-74 47l801 1282l73 -47zM305 1296q95 0 168.5 -46.5t73.5 -120.5q0 -75 -53.5 -119.5t-124.5 -61.5v-4q83 -8 147 -56t64 -110
q0 -109 -89 -174t-210 -65t-213 65l34 70q75 -62 159 -62q183 0 183 144q0 72 -46 105.5t-106 33.5t-106 -8l-6 76h17q92 0 155.5 32.5t63.5 120.5q0 59 -40 85t-93 26q-98 0 -146 -84l-55 55q76 98 223 98z" />
    <glyph glyph-name="questiondown" unicode="&#xbf;" horiz-adv-x="839" 
d="M576 -494q-219 0 -354.5 120.5t-135.5 324.5q0 159 123 272t297 113v217h92v-365h-74q-140 0 -229.5 -77t-89.5 -207t95.5 -221t223.5 -91l191 101l55 -135q-81 -52 -194 -52zM657 748q0 -43 -30.5 -74t-73.5 -31t-73.5 31t-30.5 74t30.5 73.5t73.5 30.5t73.5 -30.5
t30.5 -73.5z" />
    <glyph glyph-name="Agrave" unicode="&#xc0;" horiz-adv-x="1241" 
d="M584 1024l-205 -532h414zM784 0v66l170 16l-129 328h-479l-127 -322l166 -22v-66h-389v70l123 20l471 1172h61l475 -1180l119 -16v-66h-461zM678 1333l-322 318l109 90l248 -381z" />
    <glyph glyph-name="Aacute" unicode="&#xc1;" horiz-adv-x="1241" 
d="M584 1024l-205 -532h414zM784 0v66l170 16l-129 328h-479l-127 -322l166 -22v-66h-389v70l123 20l471 1172h61l475 -1180l119 -16v-66h-461zM555 1333l-35 27l248 381l109 -90z" />
    <glyph glyph-name="Acircumflex" unicode="&#xc2;" horiz-adv-x="1241" 
d="M584 1024l-205 -532h414zM784 0v66l170 16l-129 328h-479l-127 -322l166 -22v-66h-389v70l123 20l471 1172h61l475 -1180l119 -16v-66h-461zM856 1325l-233 250l-234 -250l-35 23l256 395h25l256 -395z" />
    <glyph glyph-name="Atilde" unicode="&#xc3;" horiz-adv-x="1241" 
d="M584 1024l-205 -532h414zM784 0v66l170 16l-129 328h-479l-127 -322l166 -22v-66h-389v70l123 20l471 1172h61l475 -1180l119 -16v-66h-461zM747 1399q-33 0 -68.5 18.5t-73.5 40t-73.5 40t-75.5 18.5t-70 -36t-52 -73l-41 23q26 66 84 133t123 67q31 0 66.5 -18.5
t73.5 -40t74 -40t76 -18.5t69.5 36t51.5 73l41 -23q-26 -66 -67 -113.5t-73 -67t-65 -19.5z" />
    <glyph glyph-name="Adieresis" unicode="&#xc4;" horiz-adv-x="1241" 
d="M584 1024l-205 -532h414zM784 0v66l170 16l-129 328h-479l-127 -322l166 -22v-66h-389v70l123 20l471 1172h61l475 -1180l119 -16v-66h-461zM541 1513.5q0 -36.5 -27 -63.5t-63.5 -27t-63.5 27t-27 63.5t27 63.5t63.5 27t63.5 -27t27 -63.5zM885 1513.5
q0 -36.5 -27 -63.5t-63.5 -27t-63 27t-26.5 63.5t26.5 63.5t63 27t63.5 -27t27 -63.5z" />
    <glyph glyph-name="Aring" unicode="&#xc5;" horiz-adv-x="1241" 
d="M584 1024l-205 -532h414zM731 1505.5q0 55.5 -26.5 98.5t-82 43t-82 -43t-26.5 -98.5t26.5 -98.5t82 -43t82 43t26.5 98.5zM784 0v66l170 16l-129 328h-479l-127 -322l166 -22v-66h-389v70l123 20l471 1172h61l475 -1180l119 -16v-66h-461zM829 1505q0 -84 -60 -137
t-146 -53t-146.5 53t-60.5 137t60.5 137.5t146.5 53.5t146 -53.5t60 -137.5z" />
    <glyph glyph-name="AE" unicode="&#xc6;" horiz-adv-x="1589" 
d="M741 1180h-49l-344 -629h393v629zM582 0v66l159 16v387h-438l-207 -383l158 -20v-66h-381v70l123 20l596 1090l-160 16v66h1030v-287h-73l-29 205h-463v-482h336l20 142h70v-365h-70l-20 141h-336v-530h487l29 221h78v-307h-909z" />
    <glyph glyph-name="Ccedilla" unicode="&#xc7;" horiz-adv-x="1267" 
d="M688 -141q164 -45 164 -177q0 -97 -76.5 -152.5t-165.5 -55.5q-90 0 -147 28l24 68q48 -25 107 -25t99 29t40 67t-7 56t-34.5 40t-148.5 54l100 178q-256 25 -413.5 202.5t-157.5 464.5t183.5 472.5t481.5 185.5q203 0 348 -61l27 61h66l-17 -370h-65l-33 161
q-74 61 -153.5 94t-189.5 33q-211 0 -339.5 -153.5t-128.5 -401.5t91 -373.5t180 -175t202 -49.5q241 0 414 181l49 -66q-203 -207 -477 -207z" />
    <glyph glyph-name="Egrave" unicode="&#xc8;" horiz-adv-x="1099" 
d="M88 0v66l160 16v1098l-160 16v66h885v-287h-74l-29 205h-462v-482h335l21 142h70v-365h-70l-21 141h-335v-530h487l29 221h77v-307h-913zM672 1333l-322 318l109 90l248 -381z" />
    <glyph glyph-name="Eacute" unicode="&#xc9;" horiz-adv-x="1099" 
d="M88 0v66l160 16v1098l-160 16v66h885v-287h-74l-29 205h-462v-482h335l21 142h70v-365h-70l-21 141h-335v-530h487l29 221h77v-307h-913zM442 1333l-34 27l247 381l109 -90z" />
    <glyph glyph-name="Ecircumflex" unicode="&#xca;" horiz-adv-x="1099" 
d="M88 0v66l160 16v1098l-160 16v66h885v-287h-74l-29 205h-462v-482h335l21 142h70v-365h-70l-21 141h-335v-530h487l29 221h77v-307h-913zM815 1325l-233 250l-234 -250l-35 23l256 395h25l256 -395z" />
    <glyph glyph-name="Edieresis" unicode="&#xcb;" horiz-adv-x="1099" 
d="M88 0v66l160 16v1098l-160 16v66h885v-287h-74l-29 205h-462v-482h335l21 142h70v-365h-70l-21 141h-335v-530h487l29 221h77v-307h-913zM498 1513.5q0 -36.5 -27 -63.5t-63.5 -27t-63.5 27t-27 63.5t27 63.5t63.5 27t63.5 -27t27 -63.5zM842 1513.5q0 -36.5 -27 -63.5
t-63.5 -27t-63 27t-26.5 63.5t26.5 63.5t63 27t63.5 -27t27 -63.5z" />
    <glyph glyph-name="Igrave" unicode="&#xcc;" horiz-adv-x="671" 
d="M96 0v66l160 16v1098l-160 16v66h479v-66l-159 -16v-1098l159 -16v-66h-479zM434 1333l-321 318l108 90l248 -381z" />
    <glyph glyph-name="Iacute" unicode="&#xcd;" horiz-adv-x="671" 
d="M96 0v66l160 16v1098l-160 16v66h479v-66l-159 -16v-1098l159 -16v-66h-479zM238 1333l-35 27l248 381l108 -90z" />
    <glyph glyph-name="Icircumflex" unicode="&#xce;" horiz-adv-x="671" 
d="M96 0v66l160 16v1098l-160 16v66h479v-66l-159 -16v-1098l159 -16v-66h-479zM569 1325l-233 250l-234 -250l-34 23l256 395h24l256 -395z" />
    <glyph glyph-name="Idieresis" unicode="&#xcf;" horiz-adv-x="671" 
d="M96 0v66l160 16v1098l-160 16v66h479v-66l-159 -16v-1098l159 -16v-66h-479zM254 1513.5q0 -36.5 -26.5 -63.5t-63.5 -27t-63.5 27t-26.5 63.5t26.5 63.5t63.5 27t63.5 -27t26.5 -63.5zM598 1513.5q0 -36.5 -26.5 -63.5t-63.5 -27t-63.5 27t-26.5 63.5t26.5 63.5t63.5 27
t63.5 -27t26.5 -63.5z" />
    <glyph glyph-name="Eth" unicode="&#xd0;" horiz-adv-x="1382" 
d="M611 74q87 0 192.5 33.5t220.5 139.5t115 375t-145.5 417.5t-418.5 148.5q-99 0 -167 -8v-482h299v-90h-299v-518q116 -16 203 -16zM1133 174.5q-184 -174.5 -492 -174.5h-553v66l160 16v526h-160v90h160v482l-160 16v66h543q308 0 497 -162t189 -456.5t-184 -469z" />
    <glyph glyph-name="Ntilde" unicode="&#xd1;" horiz-adv-x="1449" 
d="M1225 -8h-51l-838 1026v-928l160 -24v-66h-418v66l160 24v1040l-39 48l-121 18v66h264l784 -967v876l-159 25v66h417v-66l-159 -25v-1179zM862 1399q-33 0 -68.5 18.5t-73.5 40t-74 40t-76 18.5t-69.5 -36t-51.5 -73l-41 23q26 66 84 133t122 67q31 0 67 -18.5t74 -40
t73.5 -40t75.5 -18.5t70 36t52 73l41 -23q-26 -67 -67.5 -114t-73 -66.5t-64.5 -19.5z" />
    <glyph glyph-name="Ograve" unicode="&#xd2;" horiz-adv-x="1421" 
d="M1028.5 1052q-134.5 160 -321.5 160t-318 -153t-131 -420t135 -428.5t323 -161.5t317.5 151t129.5 421q0 271 -134.5 431zM1341 641.5q0 -149.5 -48 -273.5t-133 -213t-201.5 -138.5t-254 -49.5t-252 46t-197.5 131t-129 206t-46 270.5t48 273.5t133 213t202 138t254 49
t251.5 -46t197.5 -131t129 -205.5t46 -270zM809 1333l-322 318l109 90l248 -381z" />
    <glyph glyph-name="Oacute" unicode="&#xd3;" horiz-adv-x="1421" 
d="M1028.5 1052q-134.5 160 -321.5 160t-318 -153t-131 -420t135 -428.5t323 -161.5t317.5 151t129.5 421q0 271 -134.5 431zM1341 641.5q0 -149.5 -48 -273.5t-133 -213t-201.5 -138.5t-254 -49.5t-252 46t-197.5 131t-129 206t-46 270.5t48 273.5t133 213t202 138t254 49
t251.5 -46t197.5 -131t129 -205.5t46 -270zM612 1333l-34 27l247 381l109 -90z" />
    <glyph glyph-name="Ocircumflex" unicode="&#xd4;" horiz-adv-x="1421" 
d="M1028.5 1052q-134.5 160 -321.5 160t-318 -153t-131 -420t135 -428.5t323 -161.5t317.5 151t129.5 421q0 271 -134.5 431zM1341 641.5q0 -149.5 -48 -273.5t-133 -213t-201.5 -138.5t-254 -49.5t-252 46t-197.5 131t-129 206t-46 270.5t48 273.5t133 213t202 138t254 49
t251.5 -46t197.5 -131t129 -205.5t46 -270zM944 1325l-233 250l-234 -250l-35 23l256 395h25l256 -395z" />
    <glyph glyph-name="Otilde" unicode="&#xd5;" horiz-adv-x="1421" 
d="M1028.5 1052q-134.5 160 -321.5 160t-318 -153t-131 -420t135 -428.5t323 -161.5t317.5 151t129.5 421q0 271 -134.5 431zM1341 641.5q0 -149.5 -48 -273.5t-133 -213t-201.5 -138.5t-254 -49.5t-252 46t-197.5 131t-129 206t-46 270.5t48 273.5t133 213t202 138t254 49
t251.5 -46t197.5 -131t129 -205.5t46 -270zM836 1399q-32 0 -68.5 18.5t-74.5 40t-73.5 40t-75.5 18.5t-70 -36t-52 -73l-41 23q26 66 84 133t123 67q31 0 66.5 -18.5t73.5 -40t74 -40t76 -18.5t69.5 36t51.5 73l41 -23q-26 -66 -67 -113.5t-73 -67t-64 -19.5z" />
    <glyph glyph-name="Odieresis" unicode="&#xd6;" horiz-adv-x="1421" 
d="M1028.5 1052q-134.5 160 -321.5 160t-318 -153t-131 -420t135 -428.5t323 -161.5t317.5 151t129.5 421q0 271 -134.5 431zM1341 641.5q0 -149.5 -48 -273.5t-133 -213t-201.5 -138.5t-254 -49.5t-252 46t-197.5 131t-129 206t-46 270.5t48 273.5t133 213t202 138t254 49
t251.5 -46t197.5 -131t129 -205.5t46 -270zM629 1513.5q0 -36.5 -27 -63.5t-63.5 -27t-63 27t-26.5 63.5t26.5 63.5t63 27t63.5 -27t27 -63.5zM973 1513.5q0 -36.5 -26.5 -63.5t-63.5 -27t-63.5 27t-26.5 63.5t26.5 63.5t63.5 27t63.5 -27t26.5 -63.5z" />
    <glyph glyph-name="multiply" unicode="&#xd7;" horiz-adv-x="1392" 
d="M1073 94l-377 379l-377 -379l-69 70l379 377l-379 377l69 69l377 -379l377 379l70 -69l-379 -377l379 -377z" />
    <glyph glyph-name="Oslash" unicode="&#xd8;" horiz-adv-x="1421" 
d="M438 162q117 -113 291 -113t304 151t130 419t-127 423zM983 1100q-116 112 -290 112t-304.5 -153t-130.5 -417t127 -423zM1341 641q0 -296 -180.5 -485t-455.5 -189q-190 0 -338 88l-117 -172l-62 47l115 170q-223 184 -223 521q0 296 180 484.5t457 188.5q190 0 338 -88
l116 172l62 -47l-115 -170q223 -184 223 -520z" />
    <glyph glyph-name="Ugrave" unicode="&#xd9;" horiz-adv-x="1370" 
d="M723 70q356 0 356 438v663l-159 25v66h417v-66l-159 -25v-698q0 -354 -179.5 -430t-302.5 -76q-238 0 -360.5 136.5t-122.5 369.5v707l-160 16v66h479v-66l-159 -16v-668q0 -324 125 -383t225 -59zM864 1333l-321 318l108 90l248 -381z" />
    <glyph glyph-name="Uacute" unicode="&#xda;" horiz-adv-x="1370" 
d="M723 70q356 0 356 438v663l-159 25v66h417v-66l-159 -25v-698q0 -354 -179.5 -430t-302.5 -76q-238 0 -360.5 136.5t-122.5 369.5v707l-160 16v66h479v-66l-159 -16v-668q0 -324 125 -383t225 -59zM612 1333l-34 27l247 381l109 -90z" />
    <glyph glyph-name="Ucircumflex" unicode="&#xdb;" horiz-adv-x="1370" 
d="M723 70q356 0 356 438v663l-159 25v66h417v-66l-159 -25v-698q0 -354 -179.5 -430t-302.5 -76q-238 0 -360.5 136.5t-122.5 369.5v707l-160 16v66h479v-66l-159 -16v-668q0 -324 125 -383t225 -59zM954 1325l-233 250l-234 -250l-34 23l256 395h24l256 -395z" />
    <glyph glyph-name="Udieresis" unicode="&#xdc;" horiz-adv-x="1370" 
d="M723 70q356 0 356 438v663l-159 25v66h417v-66l-159 -25v-698q0 -354 -179.5 -430t-302.5 -76q-238 0 -360.5 136.5t-122.5 369.5v707l-160 16v66h479v-66l-159 -16v-668q0 -324 125 -383t225 -59zM639 1513.5q0 -36.5 -26.5 -63.5t-63.5 -27t-63.5 27t-26.5 63.5
t26.5 63.5t63.5 27t63.5 -27t26.5 -63.5zM983 1513.5q0 -36.5 -26.5 -63.5t-63.5 -27t-63.5 27t-26.5 63.5t26.5 63.5t63.5 27t63.5 -27t26.5 -63.5z" />
    <glyph glyph-name="Yacute" unicode="&#xdd;" horiz-adv-x="1159" 
d="M823 0h-479v66l160 16v434l-371 664l-119 16v66h467v-66l-168 -16l305 -559l306 555l-158 20v66h379v-66l-123 -25l-358 -643v-446l159 -16v-66zM504 1333l-35 27l248 381l108 -90z" />
    <glyph glyph-name="Thorn" unicode="&#xde;" horiz-adv-x="1038" 
d="M531 367q152 0 229.5 90t77.5 230t-87 208t-229 68q-42 0 -114 -9v-575q50 -12 123 -12zM542 289q-86 0 -134 12v-219l180 -16v-66h-500v66l160 16v1098l-160 16v66h479v-66l-159 -16v-144h165q189 0 311 -90t122 -241q0 -189 -96.5 -272t-189 -113.5t-178.5 -30.5z" />
    <glyph glyph-name="germandbls" unicode="&#xdf;" horiz-adv-x="1079" 
d="M974 32q-81 -65 -179 -65q-197 0 -297 78l-6 201l51 10q45 -223 221 -223q68 0 109.5 40t41.5 100t-51.5 106.5t-121.5 97.5t-147 110.5t-77 183.5q0 89 65.5 158.5t164.5 112.5q16 53 16 132q0 134 -52.5 204t-152.5 70t-160.5 -81t-60.5 -261v-932l78 -17v-57h-359v57
l133 17v663h-133v54l133 49v123q0 199 107.5 324.5t280.5 125.5q132 0 228.5 -90t96.5 -217q0 -90 -20 -160q-148 -48 -187 -121t-39 -113q0 -72 28 -108t111 -97q84 -61 126.5 -92.5t87.5 -78t45 -142.5q0 -97 -81 -162z" />
    <glyph glyph-name="agrave" unicode="&#xe0;" horiz-adv-x="860" 
d="M207 225q0 -149 171 -149q81 0 163 82v264l-142 -27q-192 -34 -192 -170zM787 72q42 0 69 32l23 -36q-23 -29 -73 -61t-104 -32t-94.5 37t-56.5 86q-74 -74 -143.5 -98.5t-98.5 -24.5q-104 0 -173.5 57.5t-69.5 160.5q0 203 276 251l199 37v129q0 84 -36 120t-124 36
q-129 0 -227 -143l-58 53q51 76 134 126t180 50q279 0 278 -225v-420q0 -82 28.5 -108.5t70.5 -26.5zM496 926l-322 317l109 90l247 -381z" />
    <glyph glyph-name="aacute" unicode="&#xe1;" horiz-adv-x="860" 
d="M207 225q0 -149 171 -149q81 0 163 82v264l-142 -27q-192 -34 -192 -170zM787 72q42 0 69 32l23 -36q-23 -29 -73 -61t-104 -32t-94.5 37t-56.5 86q-74 -74 -143.5 -98.5t-98.5 -24.5q-104 0 -173.5 57.5t-69.5 160.5q0 203 276 251l199 37v129q0 84 -36 120t-124 36
q-129 0 -227 -143l-58 53q51 76 134 126t180 50q279 0 278 -225v-420q0 -82 28.5 -108.5t70.5 -26.5zM334 926l-35 26l248 381l108 -90z" />
    <glyph glyph-name="acircumflex" unicode="&#xe2;" horiz-adv-x="860" 
d="M207 225q0 -149 171 -149q81 0 163 82v264l-142 -27q-192 -34 -192 -170zM787 72q42 0 69 32l23 -36q-23 -29 -73 -61t-104 -32t-94.5 37t-56.5 86q-74 -74 -143.5 -98.5t-98.5 -24.5q-104 0 -173.5 57.5t-69.5 160.5q0 203 276 251l199 37v129q0 84 -36 120t-124 36
q-129 0 -227 -143l-58 53q51 76 134 126t180 50q279 0 278 -225v-420q0 -82 28.5 -108.5t70.5 -26.5zM647 918l-233 249l-234 -249l-35 22l256 395h25l256 -395z" />
    <glyph glyph-name="atilde" unicode="&#xe3;" horiz-adv-x="860" 
d="M207 225q0 -149 171 -149q81 0 163 82v264l-142 -27q-192 -34 -192 -170zM787 72q42 0 69 32l23 -36q-23 -29 -73 -61t-104 -32t-94.5 37t-56.5 86q-74 -74 -143.5 -98.5t-98.5 -24.5q-104 0 -173.5 57.5t-69.5 160.5q0 203 276 251l199 37v129q0 84 -36 120t-124 36
q-129 0 -227 -143l-58 53q51 76 134 126t180 50q279 0 278 -225v-420q0 -82 28.5 -108.5t70.5 -26.5zM538 991q-32 0 -68 18.5t-74 40t-73.5 40t-75.5 18.5t-70 -36t-52 -73l-41 23q26 66 84.5 133.5t122.5 67.5q31 0 66.5 -18.5t73.5 -40t73.5 -40t75.5 -18.5t70 36t52 72
l41 -22q-25 -65 -66.5 -113.5t-74 -68t-64.5 -19.5z" />
    <glyph glyph-name="adieresis" unicode="&#xe4;" horiz-adv-x="860" 
d="M207 225q0 -149 171 -149q81 0 163 82v264l-142 -27q-192 -34 -192 -170zM787 72q42 0 69 32l23 -36q-23 -29 -73 -61t-104 -32t-94.5 37t-56.5 86q-74 -74 -143.5 -98.5t-98.5 -24.5q-104 0 -173.5 57.5t-69.5 160.5q0 203 276 251l199 37v129q0 84 -36 120t-124 36
q-129 0 -227 -143l-58 53q51 76 134 126t180 50q279 0 278 -225v-420q0 -82 28.5 -108.5t70.5 -26.5zM332 1106q0 -37 -26.5 -63.5t-63.5 -26.5t-63.5 26.5t-26.5 63.5t26.5 63.5t63.5 26.5t63.5 -26.5t26.5 -63.5zM676 1106q0 -37 -26.5 -63.5t-63.5 -26.5t-63.5 26.5
t-26.5 63.5t26.5 63.5t63.5 26.5t63.5 -26.5t26.5 -63.5z" />
    <glyph glyph-name="aring" unicode="&#xe5;" horiz-adv-x="860" 
d="M207 225q0 -149 171 -149q81 0 163 82v264l-142 -27q-192 -34 -192 -170zM520 1130.5q0 55.5 -26.5 98.5t-82 43t-82 -43t-26.5 -98.5t26.5 -98.5t82 -43t82 43t26.5 98.5zM787 72q42 0 69 32l23 -36q-23 -29 -73 -61t-104 -32t-94.5 37t-56.5 86q-74 -74 -143.5 -98.5
t-98.5 -24.5q-104 0 -173.5 57.5t-69.5 160.5q0 203 276 251l199 37v129q0 84 -36 120t-124 36q-129 0 -227 -143l-58 53q51 76 134 126t180 50q279 0 278 -225v-420q0 -82 28.5 -108.5t70.5 -26.5zM618 1130.5q0 -83.5 -60 -137t-146 -53.5t-146.5 53.5t-60.5 137t60.5 137
t146.5 53.5t146 -53.5t60 -137z" />
    <glyph glyph-name="ae" unicode="&#xe6;" horiz-adv-x="1347" 
d="M262 339q-53 -42 -53 -113t45.5 -110.5t99.5 -39.5q102 0 191 80v266l-148 -27q-82 -14 -135 -56zM1120 526q0 117 -29.5 167t-66.5 71.5t-90 21.5q-98 0 -163.5 -73t-78.5 -187h428zM385 766q-129 0 -227 -143l-58 53q51 76 133.5 126t178.5 50t156 -26.5t91 -96.5
q49 63 129 93t154 30q160 0 248 -94t88 -248v-51h-590v-31q0 -178 81.5 -270t189.5 -92q185 0 270 106l41 -39q-64 -71 -136.5 -114.5t-185.5 -43.5q-209 0 -332 146h-12q-72 -66 -142.5 -106t-169.5 -40t-162.5 62.5t-63.5 161.5q0 198 280 245l199 37v129q0 84 -36 120
t-124 36z" />
    <glyph glyph-name="ccedilla" unicode="&#xe7;" horiz-adv-x="862" 
d="M457 -141q164 -45 164 -177q0 -97 -76.5 -152.5t-190.5 -55.5q-66 0 -123 28l25 68q48 -25 107 -25t99 29t40 67t-7.5 56t-35.5 40.5t-148 53.5l107 189q-157 21 -257 141t-100 302t125.5 305.5t294.5 123.5q74 0 124 -10.5t110 -40.5l22 51h49l-12 -256h-53
q-16 84 -74.5 135t-167.5 51t-182.5 -91t-73.5 -257t82 -267t192 -101q186 0 271 106l41 -39q-134 -158 -328 -158z" />
    <glyph glyph-name="egrave" unicode="&#xe8;" horiz-adv-x="886" 
d="M659 526q0 117 -29.5 167t-66.5 71.5t-96 21.5q-92 0 -156.5 -68.5t-81.5 -191.5h430zM223 459v-23q0 -170 81 -270t192 -100q187 0 272 106l41 -39q-62 -68 -135 -113t-179 -45t-182.5 32t-132 89.5t-87.5 138t-32 225.5t125 268.5t290 123.5t253 -94t88 -248v-51h-594z
M532 926l-321 317l108 90l248 -381z" />
    <glyph glyph-name="eacute" unicode="&#xe9;" horiz-adv-x="886" 
d="M659 526q0 117 -29.5 167t-66.5 71.5t-96 21.5q-92 0 -156.5 -68.5t-81.5 -191.5h430zM223 459v-23q0 -170 81 -270t192 -100q187 0 272 106l41 -39q-62 -68 -135 -113t-179 -45t-182.5 32t-132 89.5t-87.5 138t-32 225.5t125 268.5t290 123.5t253 -94t88 -248v-51h-594z
M385 926l-35 26l248 381l109 -90z" />
    <glyph glyph-name="ecircumflex" unicode="&#xea;" horiz-adv-x="886" 
d="M659 526q0 117 -29.5 167t-66.5 71.5t-96 21.5q-92 0 -156.5 -68.5t-81.5 -191.5h430zM223 459v-23q0 -170 81 -270t192 -100q187 0 272 106l41 -39q-62 -68 -135 -113t-179 -45t-182.5 32t-132 89.5t-87.5 138t-32 225.5t125 268.5t290 123.5t253 -94t88 -248v-51h-594z
M692 918l-233 249l-234 -249l-35 22l256 395h25l256 -395z" />
    <glyph glyph-name="edieresis" unicode="&#xeb;" horiz-adv-x="886" 
d="M659 526q0 117 -29.5 167t-66.5 71.5t-96 21.5q-92 0 -156.5 -68.5t-81.5 -191.5h430zM223 459v-23q0 -170 81 -270t192 -100q187 0 272 106l41 -39q-62 -68 -135 -113t-179 -45t-182.5 32t-132 89.5t-87.5 138t-32 225.5t125 268.5t290 123.5t253 -94t88 -248v-51h-594z
M377 1106q0 -37 -26.5 -63.5t-63.5 -26.5t-63.5 26.5t-26.5 63.5t26.5 63.5t63.5 26.5t63.5 -26.5t26.5 -63.5zM721 1106q0 -37 -26.5 -63.5t-63.5 -26.5t-63.5 26.5t-26.5 63.5t26.5 63.5t63.5 26.5t63.5 -26.5t26.5 -63.5z" />
    <glyph glyph-name="igrave" unicode="&#xec;" horiz-adv-x="540" 
d="M70 0v57l133 17v651l-133 23v53l280 51v-778l133 -17v-57h-413zM367 926l-322 317l109 90l247 -381z" />
    <glyph glyph-name="iacute" unicode="&#xed;" horiz-adv-x="540" 
d="M70 0v57l133 17v651l-133 23v53l280 51v-778l133 -17v-57h-413zM145 926l-34 26l247 381l109 -90z" />
    <glyph glyph-name="icircumflex" unicode="&#xee;" horiz-adv-x="540" 
d="M70 0v57l133 17v651l-133 23v53l280 51v-778l133 -17v-57h-413zM469 918l-213 249l-213 -249l-35 22l236 395h24l236 -395z" />
    <glyph glyph-name="idieresis" unicode="&#xef;" horiz-adv-x="540" 
d="M70 0v57l133 17v651l-133 23v53l280 51v-778l133 -17v-57h-413zM195 1106q0 -37 -27 -63.5t-63.5 -26.5t-63.5 26.5t-27 63.5t27 63.5t63.5 26.5t63.5 -26.5t27 -63.5zM498 1106q0 -37 -27 -63.5t-63.5 -26.5t-63.5 26.5t-27 63.5t27 63.5t63.5 26.5t63.5 -26.5t27 -63.5
z" />
    <glyph glyph-name="eth" unicode="&#xf0;" horiz-adv-x="966" 
d="M480 786q-114 0 -184.5 -95t-70.5 -277.5t71 -277.5t190 -95t184 108.5t65 285.5t-70.5 264t-184.5 87zM899 479q0 -227 -111.5 -365.5t-300.5 -138.5q-188 0 -307 121t-119 317t120 317.5t296 121.5q107 0 187 -51l4 4q-40 140 -133 266l-259 -117l-32 70l241 109
q-111 133 -237 223l112 20q148 -92 238 -192l236 106l32 -69l-211 -97q244 -284 244 -645z" />
    <glyph glyph-name="ntilde" unicode="&#xf1;" horiz-adv-x="1073" 
d="M754 705q-51 61 -160 61t-177.5 -113t-68.5 -262v-317l148 -17v-57h-428v57l133 17v651l-133 23v53l272 43v-195l8 -2q39 92 114.5 148.5t187.5 56.5t181.5 -76t69.5 -198v-504l133 -17v-57h-428v57l148 17v631zM664 991q-32 0 -68.5 18.5t-74.5 40t-73.5 40t-75.5 18.5
t-70 -36t-52 -73l-41 23q25 65 83 133t124 68q31 0 66.5 -18.5t73.5 -40t74 -40t76 -18.5t69.5 36t51.5 72l41 -22q-25 -65 -66.5 -113.5t-73.5 -68t-64 -19.5z" />
    <glyph glyph-name="ograve" unicode="&#xf2;" horiz-adv-x="966" 
d="M741 413.5q0 182.5 -70.5 277.5t-187 95t-187.5 -95t-71 -277.5t71 -277.5t187.5 -95t187 95t70.5 277.5zM905 413.5q0 -98.5 -32.5 -179t-90 -138t-134.5 -89.5t-165 -32t-164.5 32t-134 89.5t-90.5 138t-33 179t33 179.5t90.5 138t134 89t164.5 32t165 -32t134.5 -89
t90 -138t32.5 -179.5zM575 926l-321 317l108 90l248 -381z" />
    <glyph glyph-name="oacute" unicode="&#xf3;" horiz-adv-x="966" 
d="M741 413.5q0 182.5 -70.5 277.5t-187 95t-187.5 -95t-71 -277.5t71 -277.5t187.5 -95t187 95t70.5 277.5zM905 413.5q0 -98.5 -32.5 -179t-90 -138t-134.5 -89.5t-165 -32t-164.5 32t-134 89.5t-90.5 138t-33 179t33 179.5t90.5 138t134 89t164.5 32t165 -32t134.5 -89
t90 -138t32.5 -179.5zM391 926l-35 26l248 381l109 -90z" />
    <glyph glyph-name="ocircumflex" unicode="&#xf4;" horiz-adv-x="966" 
d="M741 413.5q0 182.5 -70.5 277.5t-187 95t-187.5 -95t-71 -277.5t71 -277.5t187.5 -95t187 95t70.5 277.5zM905 413.5q0 -98.5 -32.5 -179t-90 -138t-134.5 -89.5t-165 -32t-164.5 32t-134 89.5t-90.5 138t-33 179t33 179.5t90.5 138t134 89t164.5 32t165 -32t134.5 -89
t90 -138t32.5 -179.5zM717 918l-234 249l-233 -249l-35 22l256 395h25l256 -395z" />
    <glyph glyph-name="otilde" unicode="&#xf5;" horiz-adv-x="966" 
d="M741 413.5q0 182.5 -70.5 277.5t-187 95t-187.5 -95t-71 -277.5t71 -277.5t187.5 -95t187 95t70.5 277.5zM905 413.5q0 -98.5 -32.5 -179t-90 -138t-134.5 -89.5t-165 -32t-164.5 32t-134 89.5t-90.5 138t-33 179t33 179.5t90.5 138t134 89t164.5 32t165 -32t134.5 -89
t90 -138t32.5 -179.5zM629 991q-33 0 -69 18.5t-73.5 40t-73.5 40t-76 18.5t-69.5 -36t-52.5 -73l-41 23q26 66 84.5 133.5t122.5 67.5q31 0 66.5 -18.5t73.5 -40t74 -40t76 -18.5t69.5 36t52.5 72l41 -22q-24 -63 -66.5 -112.5t-74 -69t-64.5 -19.5z" />
    <glyph glyph-name="odieresis" unicode="&#xf6;" horiz-adv-x="966" 
d="M741 413.5q0 182.5 -70.5 277.5t-187 95t-187.5 -95t-71 -277.5t71 -277.5t187.5 -95t187 95t70.5 277.5zM905 413.5q0 -98.5 -32.5 -179t-90 -138t-134.5 -89.5t-165 -32t-164.5 32t-134 89.5t-90.5 138t-33 179t33 179.5t90.5 138t134 89t164.5 32t165 -32t134.5 -89
t90 -138t32.5 -179.5zM401 1106q0 -37 -26.5 -63.5t-63.5 -26.5t-63.5 26.5t-26.5 63.5t26.5 63.5t63.5 26.5t63.5 -26.5t26.5 -63.5zM745 1106q0 -37 -26.5 -63.5t-63.5 -26.5t-63.5 26.5t-26.5 63.5t26.5 63.5t63.5 26.5t63.5 -26.5t26.5 -63.5z" />
    <glyph glyph-name="divide" unicode="&#xf7;" horiz-adv-x="1392" 
d="M801 209q0 -43 -31 -74t-74 -31t-73.5 31t-30.5 74t30.5 73.5t73.5 30.5t74 -30.5t31 -73.5zM231 496v98h930v-98h-930zM801 881q0 -43 -31 -74t-74 -31t-73.5 31t-30.5 74t30.5 73.5t73.5 30.5t74 -30.5t31 -73.5z" />
    <glyph glyph-name="oslash" unicode="&#xf8;" horiz-adv-x="966" 
d="M741 398q0 166 -51 261l-373 -548q63 -70 173 -70t180.5 95.5t70.5 261.5zM225 432q0 -164 54 -266l370 551q-67 69 -175 69t-178.5 -95t-70.5 -259zM756 756q149 -126 149 -331q0 -206 -122 -328t-300 -122q-128 0 -219 60l-86 -129l-51 37l86 127q-152 128 -152 333
t123 327t299 122q121 0 217 -59l88 131l54 -39z" />
    <glyph glyph-name="ugrave" unicode="&#xf9;" horiz-adv-x="1032" 
d="M713 436v303l-148 23v57h295v-725l133 -22v-54l-272 -38v198l-8 2q-39 -92 -115 -148.5t-188 -56.5t-181 76t-69 199v489l-133 23v57h280v-692q49 -66 158 -66t178.5 112.5t69.5 262.5zM627 926l-322 317l109 90l248 -381z" />
    <glyph glyph-name="uacute" unicode="&#xfa;" horiz-adv-x="1032" 
d="M713 436v303l-148 23v57h295v-725l133 -22v-54l-272 -38v198l-8 2q-39 -92 -115 -148.5t-188 -56.5t-181 76t-69 199v489l-133 23v57h280v-692q49 -66 158 -66t178.5 112.5t69.5 262.5zM393 926l-35 26l248 381l109 -90z" />
    <glyph glyph-name="ucircumflex" unicode="&#xfb;" horiz-adv-x="1032" 
d="M713 436v303l-148 23v57h295v-725l133 -22v-54l-272 -38v198l-8 2q-39 -92 -115 -148.5t-188 -56.5t-181 76t-69 199v489l-133 23v57h280v-692q49 -66 158 -66t178.5 112.5t69.5 262.5zM733 918l-233 249l-234 -249l-35 22l256 395h25l256 -395z" />
    <glyph glyph-name="udieresis" unicode="&#xfc;" horiz-adv-x="1032" 
d="M713 436v303l-148 23v57h295v-725l133 -22v-54l-272 -38v198l-8 2q-39 -92 -115 -148.5t-188 -56.5t-181 76t-69 199v489l-133 23v57h280v-692q49 -66 158 -66t178.5 112.5t69.5 262.5zM424 1106q0 -37 -26.5 -63.5t-63.5 -26.5t-63.5 26.5t-26.5 63.5t26.5 63.5
t63.5 26.5t63.5 -26.5t26.5 -63.5zM768 1106q0 -37 -26.5 -63.5t-63.5 -26.5t-63.5 26.5t-26.5 63.5t26.5 63.5t63.5 26.5t63.5 -26.5t26.5 -63.5z" />
    <glyph glyph-name="yacute" unicode="&#xfd;" horiz-adv-x="868" 
d="M-16 819h399v-57l-137 -17l225 -559l223 557l-135 19v57h326v-59l-105 -21l-317 -755l-176 -510h-140l248 536l-307 735l-104 17v57zM373 926l-35 26l248 381l108 -90z" />
    <glyph glyph-name="thorn" unicode="&#xfe;" horiz-adv-x="1005" 
d="M317 119q73 -72 199 -72q60 0 165 65.5t105 315.5q0 162 -60 250t-168 88t-163 -48t-78 -106v-493zM594 852q145 0 247.5 -111t102.5 -307t-121 -327.5t-303 -131.5q-133 0 -203 45v-473l189 -16v-57h-469v57l133 16v1715l-133 22v53l272 39h8v-657q102 133 277 133z" />
    <glyph glyph-name="ydieresis" unicode="&#xff;" horiz-adv-x="868" 
d="M-16 819h399v-57l-137 -17l225 -559l223 557l-135 19v57h326v-59l-105 -21l-317 -755l-176 -510h-140l248 536l-307 735l-104 17v57zM377 1106q0 -37 -26.5 -63.5t-63.5 -26.5t-63.5 26.5t-26.5 63.5t26.5 63.5t63.5 26.5t63.5 -26.5t26.5 -63.5zM721 1106
q0 -37 -26.5 -63.5t-63.5 -26.5t-63.5 26.5t-26.5 63.5t26.5 63.5t63.5 26.5t63.5 -26.5t26.5 -63.5z" />
    <glyph glyph-name="dotlessi" unicode="&#x131;" horiz-adv-x="540" 
d="M70 0v57l133 17v651l-133 23v53l280 51v-778l133 -17v-57h-413z" />
    <glyph glyph-name="Lslash" unicode="&#x141;" horiz-adv-x="1036" 
d="M88 0v66l160 16v459l-160 -82v92l160 82v547l-160 16v66h500v-66l-180 -16v-463l288 149v-92l-288 -149v-539h466l33 233h78v-319h-897z" />
    <glyph glyph-name="lslash" unicode="&#x142;" horiz-adv-x="526" 
d="M483 0h-413v57l133 17v524l-158 -82v90l158 82v574l-133 22v53l280 39v-610l182 94v-90l-182 -94v-602l133 -17v-57z" />
    <glyph glyph-name="OE" unicode="&#x152;" horiz-adv-x="1755" 
d="M371.5 217.5q131.5 -151.5 318.5 -151.5q124 0 213 55v1022q-86 53 -193 53q-108 0 -190 -38t-181 -151.5t-99 -375.5t131.5 -413.5zM671 -16q-122 0 -238 48t-198.5 134t-129 204.5t-46.5 330.5t175 394.5t456 182.5q98 0 187 -16h751v-287h-74l-28 205h-463v-482h336
l20 142h70v-365h-70l-20 141h-336v-530h487l29 221h78v-307h-778q-86 -16 -208 -16z" />
    <glyph glyph-name="oe" unicode="&#x153;" horiz-adv-x="1556" 
d="M741 413.5q0 182.5 -70.5 277.5t-187 95t-187.5 -95t-71 -277.5t71 -277.5t187.5 -95t187 95t70.5 277.5zM1329 526q0 117 -29.5 167t-66.5 71.5t-111 21.5t-140.5 -67.5t-82.5 -192.5h430zM1147 852q162 0 251 -94t89 -248v-51h-594v-23q0 -169 81 -269.5t192 -100.5
q187 0 272 106l41 -39q-62 -68 -135 -113t-184 -45t-199.5 42t-141.5 120q-57 -76 -145 -119t-184 -43t-172 32t-133.5 89.5t-90.5 138t-33 227.5t123 268.5t299 121.5q104 0 192.5 -43t145.5 -121q126 164 326 164z" />
    <glyph glyph-name="Scaron" unicode="&#x160;" horiz-adv-x="1009" 
d="M512 1212q-101 0 -170.5 -57t-69.5 -146t53.5 -139t190.5 -118t200.5 -106t131 -105.5t67.5 -213.5t-121 -253t-292 -107t-285 64l-24 -64h-66l-12 418l65 6l43 -196q107 -138 266 -138q121 0 200 64.5t79 166.5t-66 162t-194 121q-129 60 -192.5 100t-124 105t-60.5 202
t109.5 226.5t263.5 89.5t262 -57l25 57h65l-8 -370h-66l-37 180q-79 108 -233 108zM514 1333h-25l-256 396l35 22l234 -250l233 250l35 -22z" />
    <glyph glyph-name="scaron" unicode="&#x161;" horiz-adv-x="729" 
d="M385 852q80 0 160 -45l24 45h45l-4 -248h-53q-31 182 -195 182q-70 0 -105.5 -42t-35.5 -82t15.5 -65.5t41 -46t60.5 -35.5l77 -33q108 -48 170 -103.5t62 -154.5t-78 -176t-203 -77t-208 52l-21 -52h-45l-10 279l53 4q45 -217 219 -217q68 0 113 41t45 91t-14.5 76.5
t-47 54t-100.5 56.5q-131 56 -191.5 107t-60.5 152t78 169t209 68zM377 926h-25l-256 395l35 22l234 -249l233 249l35 -22z" />
    <glyph glyph-name="Ydieresis" unicode="&#x178;" horiz-adv-x="1159" 
d="M823 0h-479v66l160 16v434l-371 664l-119 16v66h467v-66l-168 -16l305 -559l306 555l-158 20v66h379v-66l-123 -25l-358 -643v-446l159 -16v-66zM520 1513.5q0 -36.5 -26.5 -63.5t-63.5 -27t-63.5 27t-26.5 63.5t26.5 63.5t63.5 27t63.5 -27t26.5 -63.5zM864 1513.5
q0 -36.5 -26.5 -63.5t-63.5 -27t-63.5 27t-26.5 63.5t26.5 63.5t63.5 27t63.5 -27t26.5 -63.5z" />
    <glyph glyph-name="Zcaron" unicode="&#x17d;" horiz-adv-x="1126" 
d="M113 934v328h942v-33l-797 -1143h684l55 254h74l-20 -340h-1004l-12 33l803 1147h-619l-33 -246h-73zM573 1333h-24l-256 396l35 22l233 -250l234 250l34 -22z" />
    <glyph glyph-name="zcaron" unicode="&#x17e;" horiz-adv-x="845" 
d="M94 586v233h680v-33l-534 -712h452l31 205h65l-8 -279h-719l-12 33l535 712h-404l-20 -159h-66zM438 926h-24l-256 395l35 22l233 -249l233 249l35 -22z" />
    <glyph glyph-name="florin" unicode="&#x192;" horiz-adv-x="1052" 
d="M82 -262q-129 0 -129 104q0 23 13.5 45.5t33.5 32.5l186 -102q39 18 64.5 42.5t50.5 90.5t53 325l39 351h-200v82h210l15 137q38 345 179 413t215 68q170 0 169 -94q0 -69 -70 -107l-155 131q-89 -27 -124.5 -106.5t-60.5 -273.5l-18 -168h305v-82h-315l-37 -328
q-27 -244 -112.5 -402.5t-311.5 -158.5z" />
    <glyph glyph-name="circumflex" unicode="&#x2c6;" 
d="M745 918l-233 249l-233 -249l-35 22l256 395h24l256 -395z" />
    <glyph glyph-name="caron" unicode="&#x2c7;" 
d="M524 926h-24l-256 395l35 22l233 -249l233 249l35 -22z" />
    <glyph glyph-name="breve" unicode="&#x2d8;" 
d="M512 979q-129 0 -204 86t-85 215l43 10q29 -102 85.5 -149t160.5 -47t160.5 47t85.5 149l43 -10q-10 -129 -85 -215t-204 -86z" />
    <glyph glyph-name="dotaccent" unicode="&#x2d9;" 
d="M610 1122q0 -41 -28.5 -69.5t-69.5 -28.5t-69.5 28.5t-28.5 69.5t28.5 70t69.5 29t69.5 -29t28.5 -70z" />
    <glyph glyph-name="ring" unicode="&#x2da;" 
d="M621 1130.5q0 55.5 -27 98.5t-82 43t-82 -43t-27 -98.5t27 -98.5t82 -43t82 43t27 98.5zM719 1130.5q0 -83.5 -60.5 -137t-146.5 -53.5t-146.5 53.5t-60.5 137t60.5 137t146.5 53.5t146.5 -53.5t60.5 -137z" />
    <glyph glyph-name="ogonek" unicode="&#x2db;" 
d="M276 -334q0 135 126 227.5t208 147.5l43 -29q-115 -84 -174 -153.5t-59 -153.5t40 -127t114 -43t128 45l19 -51q-92 -76 -205 -76t-176.5 54.5t-63.5 158.5z" />
    <glyph glyph-name="tilde" unicode="&#x2dc;" 
d="M637 991q-33 0 -69 18.5t-73.5 40t-73.5 40t-76 18.5t-69.5 -36t-52.5 -73l-41 23q24 63 83 132t124 69q31 0 67 -18.5t73.5 -40t73.5 -40t76 -18.5t69.5 36t52.5 72l41 -22q-24 -63 -66.5 -112.5t-74 -69t-64.5 -19.5z" />
    <glyph glyph-name="hungarumlaut" unicode="&#x2dd;" 
d="M281 926l-35 26l248 381l108 -90zM588 926l-35 26l248 381l108 -90z" />
    <glyph glyph-name="Delta" unicode="&#x394;" horiz-adv-x="1536" 
d="M1176 258v322l-279 -322h279zM1294 172v-221h-118v221h-363l-16 68l379 436l59 86l68 -14l-9 -164v-326h142l-17 -86h-125zM369 -35l-74 47l801 1282l73 -47zM305 1296q95 0 168.5 -46.5t73.5 -120.5q0 -75 -53.5 -119.5t-124.5 -61.5v-4q83 -8 147 -56t64 -110
q0 -109 -89 -174t-210 -65t-213 65l34 70q75 -62 159 -62q183 0 183 144q0 72 -46 105.5t-106 33.5t-106 -8l-6 76h17q92 0 155.5 32.5t63.5 120.5q0 59 -40 85t-93 26q-98 0 -146 -84l-55 55q76 98 223 98z" />
    <glyph glyph-name="Delta" unicode="&#x2206;" horiz-adv-x="1536" 
d="M1176 258v322l-279 -322h279zM1294 172v-221h-118v221h-363l-16 68l379 436l59 86l68 -14l-9 -164v-326h142l-17 -86h-125zM369 -35l-74 47l801 1282l73 -47zM305 1296q95 0 168.5 -46.5t73.5 -120.5q0 -75 -53.5 -119.5t-124.5 -61.5v-4q83 -8 147 -56t64 -110
q0 -109 -89 -174t-210 -65t-213 65l34 70q75 -62 159 -62q183 0 183 144q0 72 -46 105.5t-106 33.5t-106 -8l-6 76h17q92 0 155.5 32.5t63.5 120.5q0 59 -40 85t-93 26q-98 0 -146 -84l-55 55q76 98 223 98z" />
    <glyph glyph-name="Omega" unicode="&#x3a9;" horiz-adv-x="1392" 
d="M231 496v98h930v-98h-930z" />
    <glyph glyph-name="Omega" unicode="&#x2126;" horiz-adv-x="1392" 
d="M231 496v98h930v-98h-930z" />
    <glyph glyph-name="pi" unicode="&#x3c0;" horiz-adv-x="1536" 
d="M786 430q96 0 147.5 49.5t51.5 134.5t-52 125.5t-119 40.5t-95 -6v-340q32 -4 67 -4zM792 377q-54 0 -73 4v-213l143 -14v-54h-393v54l127 14v606l-127 12v50h352q199 0 246 -76t47 -136t-26.5 -108.5t-72.5 -79t-107.5 -45t-115.5 -14.5zM1325 475q0 117 -44 220.5
t-119 181t-176 122.5t-218 45t-218 -45t-176 -122.5t-119 -181t-44 -220.5t44 -220t119 -181t176 -123t218 -45t218 45t176 123t119 181t44 220zM1415 475q0 -135 -51 -253t-138 -205t-205 -138t-253 -51t-253 51t-205 138t-138 205t-51 253t51 253t138 205t205 138t253 51
t253 -51t205 -138t138 -205t51 -253z" />
    <glyph glyph-name="endash" unicode="&#x2013;" horiz-adv-x="1105" 
d="M102 399v99h902v-99h-902z" />
    <glyph glyph-name="emdash" unicode="&#x2014;" horiz-adv-x="1843" 
d="M102 399v99h1639v-99h-1639z" />
    <glyph glyph-name="quoteleft" unicode="&#x2018;" horiz-adv-x="409" 
d="M309 975q-1 -82 -109 -82q-54 0 -93 47t-39 133t54 152.5t146 101.5l41 -63q-70 -23 -114.5 -70t-44.5 -113l141 -45q18 -22 18 -61z" />
    <glyph glyph-name="quoteright" unicode="&#x2019;" horiz-adv-x="409" 
d="M342 1147q0 -86 -54.5 -152.5t-146.5 -101.5l-41 63q70 23 115 70t45 113l-141 45q-19 24 -19 62t28 59.5t82 21.5t93 -47t39 -133z" />
    <glyph glyph-name="quotesinglbase" unicode="&#x201a;" horiz-adv-x="409" 
d="M342 13q0 -86 -54.5 -153t-146.5 -102l-41 64q160 56 160 192l-141 35q-19 23 -19 62t28 60.5t82 21.5t93 -47t39 -133z" />
    <glyph glyph-name="quotedblleft" unicode="&#x201c;" horiz-adv-x="778" 
d="M309 975q-1 -82 -109 -82q-54 0 -93 47t-39 133t54 152.5t146 101.5l41 -63q-70 -23 -114.5 -70t-44.5 -113l141 -45q18 -22 18 -61zM678 975q0 -82 -108 -82q-54 0 -94 47t-40 133t54.5 152.5t146.5 101.5l41 -63q-70 -23 -115 -70t-45 -113l141 -45q19 -22 19 -61z" />
    <glyph glyph-name="quotedblright" unicode="&#x201d;" horiz-adv-x="778" 
d="M342 1147q0 -86 -54.5 -152.5t-146.5 -101.5l-41 63q70 23 115 70t45 113l-141 45q-19 24 -19 62t28 59.5t82 21.5t93 -47t39 -133zM469 1246q1 82 109 81q54 0 93.5 -47t39.5 -133t-54.5 -152.5t-146.5 -101.5l-41 63q70 23 115 70t45 113l-142 45q-18 24 -18 62z" />
    <glyph glyph-name="quotedblbase" unicode="&#x201e;" horiz-adv-x="778" 
d="M66 111q0 82 108 82q54 0 93.5 -47t39.5 -133t-54 -153t-147 -102l-40 64q159 55 159 192l-141 35q-18 23 -18 62zM676 13q0 -86 -54.5 -153t-146.5 -102l-41 64q160 56 160 192l-141 35q-19 23 -19 62t27 60.5t81 21.5t94 -47t40 -133z" />
    <glyph glyph-name="dagger" unicode="&#x2020;" horiz-adv-x="921" 
d="M129 760v119h121l192 -41l-47 196v260h131v-260l-47 -196l193 41h121v-119h-121l-193 41l60 -217l-62 -936h-33l-61 936l59 217l-192 -41h-121z" />
    <glyph glyph-name="daggerdbl" unicode="&#x2021;" horiz-adv-x="921" 
d="M526 -352h-131v260l47 196l-192 -41h-121v119h121l192 -41l-59 330l59 330l-192 -41h-121v119h121l192 -41l-47 196v260h131v-260l-47 -196l193 41h121v-119h-121l-193 41l60 -330l-60 -330l193 41h121v-119h-121l-193 41l47 -196v-260z" />
    <glyph glyph-name="bullet" unicode="&#x2022;" horiz-adv-x="819" 
d="M614 614q0 -86 -59 -145t-145 -59t-145.5 59t-59.5 145t59.5 145.5t145.5 59.5t145 -59.5t59 -145.5z" />
    <glyph glyph-name="ellipsis" unicode="&#x2026;" horiz-adv-x="2048" 
d="M457 90q0 -47 -34 -81t-81 -34t-81 34t-34 81t34 81t81 34t81 -34t34 -81zM1139 90q0 -47 -34 -81t-81 -34t-81 34t-34 81t34 81t81 34t81 -34t34 -81zM1821 90q0 -47 -34 -81t-81 -34t-81 34t-34 81t34 81t81 34t81 -34t34 -81z" />
    <glyph glyph-name="perthousand" unicode="&#x2030;" horiz-adv-x="2195" 
d="M1317 338q0 57 -7 114.5t-24.5 102.5t-46.5 72.5t-72 27.5t-72.5 -27.5t-46 -72.5t-23.5 -102.5t-7 -114.5t7 -114.5t24.5 -102.5t46 -73t71.5 -28t72 28t46.5 73t24.5 102.5t7 114.5zM1976 338q0 57 -7 114.5t-24.5 102.5t-46 72.5t-71.5 27.5t-73 -27.5t-46 -72.5
t-23.5 -102.5t-7.5 -114.5t7.5 -114.5t24.5 -102.5t46 -73t72 -28t71.5 28t46 73t24.5 102.5t7 114.5zM520 923.5q0 57.5 -7 115t-24.5 102.5t-46 72.5t-71.5 27.5t-73 -27.5t-46 -72.5t-23.5 -102.5t-7.5 -115t7.5 -114.5t24.5 -102t46 -73t72 -28t71.5 28t46 73t24.5 102
t7 114.5zM1371 75.5q-73 -108.5 -204 -108.5t-203.5 109t-72.5 262q0 245 103.5 308t173.5 63t121.5 -32t103 -107t51.5 -231q0 -155 -73 -263.5zM2030.5 75q-72.5 -108 -203.5 -108t-204 108.5t-73 262.5q0 244 103.5 307.5t174.5 63.5t122 -32t102 -106.5t51 -231.5
q0 -156 -72.5 -264zM406 -35l-74 47l801 1282l73 -47zM647 925q0 -154 -71.5 -263t-204.5 -109q-132 0 -204.5 108.5t-72.5 262.5q0 245 103.5 307.5t174.5 62.5t122 -31.5t102 -107.5t51 -230z" />
    <glyph glyph-name="guilsinglleft" unicode="&#x2039;" horiz-adv-x="665" 
d="M467 74l-344 356l344 356l41 -32l-217 -324l217 -324z" />
    <glyph glyph-name="guilsinglright" unicode="&#x203a;" horiz-adv-x="665" 
d="M199 74l-41 32l217 324l-217 324l41 32l344 -356z" />
    <glyph glyph-name="fraction" unicode="&#x2044;" horiz-adv-x="348" 
d="M-188 -35l-74 47l801 1282l73 -47z" />
    <glyph glyph-name="fraction" unicode="&#x2215;" horiz-adv-x="348" 
d="M-188 -35l-74 47l801 1282l73 -47z" />
    <glyph glyph-name="Euro" unicode="&#x20ac;" horiz-adv-x="1359" 
d="M838 1294q156 0 340 -65l-13 -293h-65l-29 180q-55 57 -123 76.5t-162 19.5q-167 0 -261 -117.5t-122 -306.5h646l-25 -81h-629v-52q0 -63 6 -125h566l-25 -81h-526q53 -279 185 -339.5t208 -60.5q167 0 258 68l41 182h66l-13 -266q-162 -66 -382 -66t-358.5 130.5
t-176.5 351.5h-183l25 81h145q-4 46 -4 90t4 87h-170l25 81h154q37 229 143 331t202.5 138.5t252.5 36.5z" />
    <glyph glyph-name="trademark" unicode="&#x2122;" horiz-adv-x="1482" 
d="M375 1217v-478l78 -8v-37h-254v37l77 8v478h-153l-10 -111h-45v156h516v-156h-45l-13 111h-151zM1163 694v37l82 8l-24 428l-209 -473h-33l-205 459l-22 -410l79 -12v-37h-215v37l80 12l27 469l-80 13v37h184l193 -433l188 433h185v-37l-82 -8l30 -478l80 -8v-37h-258z
" />
    <glyph glyph-name="partialdiff" unicode="&#x2202;" horiz-adv-x="1536" 
d="M1135 727q106 0 180 -54t74 -159t-71 -165t-116 -95l-178 -141v-7h322l40 111l52 -10l-27 -207h-543l-14 63l182 146q126 100 171.5 157t45.5 134q0 76 -37.5 115.5t-105.5 39.5q-106 0 -170 -123l-55 54q93 141 250 141zM348 -35l-74 47l801 1282l74 -47zM94 569v54
l139 16v545h-151v49l274 57v-651l140 -16v-54h-402z" />
    <glyph glyph-name="product" unicode="&#x220f;" 
d="M512 186l-262 263l262 262l262 -262z" />
    <glyph glyph-name="summation" unicode="&#x2211;" horiz-adv-x="1536" 
d="M1176 258v322l-279 -322h279zM1294 172v-221h-118v221h-363l-16 68l379 436l59 86l68 -14l-9 -164v-326h142l-17 -86h-125zM369 -35l-74 47l801 1282l73 -47zM115 569v54l139 16v545h-152v49l275 57v-651l139 -16v-54h-401z" />
    <glyph glyph-name="minus" unicode="&#x2212;" horiz-adv-x="1392" 
d="M231 496v98h930v-98h-930z" />
    <glyph glyph-name="radical" unicode="&#x221a;" horiz-adv-x="948" 
d="M0 750h231l250 -615l553 1290h99l-658 -1527h-37l-334 778l-104 16v58z" />
    <glyph glyph-name="infinity" unicode="&#x221e;" horiz-adv-x="1656" 
d="M338 1042v-223h401v156q0 125 41 213l-106 115q-43 25 -94 24q-129 0 -185.5 -78t-56.5 -207zM848 1288q125 125 326 125t301 -113l-82 -135l-197 178q-170 0 -239.5 -78.5t-69.5 -244.5v-201h299l280 33v-778l133 -17v-57h-413v57l133 17v651l-133 12h-299v-663l196 -17
v-57h-477v57l133 17v663h-401v-663l197 -17v-57h-478v57l133 17v663h-133v54l133 40v166q0 170 109 283t270 113q86 0 148.5 -25t130.5 -80z" />
    <glyph glyph-name="integral" unicode="&#x222b;" 
d="M567 76h-110v65l37 277l-220 -170l-57 -33l-55 94l57 33l256 107l-256 106l-57 33l55 94l57 -33l220 -170l-37 277v65h110v-65l-37 -277l220 170l57 33l55 -94l-57 -33l-256 -106l256 -107l57 -33l-55 -94l-57 33l-220 170l37 -277v-65z" />
    <glyph glyph-name="approxequal" unicode="&#x2248;" horiz-adv-x="1392" 
d="M1073 94l-377 379l-377 -379l-69 70l379 377l-379 377l69 69l377 -379l377 379l70 -69l-379 -377l379 -377z" />
    <glyph glyph-name="notequal" unicode="&#x2260;" horiz-adv-x="1118" 
d="M739 1018q0 118 31 182l-96 103q-43 25 -94 24q-129 0 -185.5 -78t-56.5 -207v-223h401v199zM1065 1413q112 0 174 -45l-49 -129l-189 100q-40 0 -77 -52t-37 -152v-316h252v-82h-252v-663l196 -17v-57h-477v57l133 17v663h-401v-663l197 -17v-57h-478v57l133 17v663
h-133v54l133 40v166q0 170 109 283t270 113q86 0 145.5 -22.5t116.5 -67.5q88 110 234 110z" />
    <glyph glyph-name="lessequal" unicode="&#x2264;" horiz-adv-x="696" 
d="M119 622.5q0 243.5 114.5 449.5t307.5 349l45 -57q-166 -139 -256 -331.5t-90 -409.5t90 -410t256 -332l-45 -57q-193 143 -307.5 349t-114.5 449.5z" />
    <glyph glyph-name="greaterequal" unicode="&#x2265;" horiz-adv-x="696" 
d="M578 622.5q0 -243.5 -115 -449.5t-307 -349l-45 57q166 139 256 332t90 410t-90.5 409.5t-255.5 331.5l45 57q193 -143 307.5 -349t114.5 -449.5z" />
    <glyph glyph-name="lozenge" unicode="&#x25ca;" horiz-adv-x="819" 
d="M410 352l-263 262l263 263l262 -263z" />
    <glyph glyph-name="fi" unicode="&#xfb01;" horiz-adv-x="1107" 
d="M637 0v57l133 17v651l-133 12h-299v-663l197 -17v-57h-478v57l133 17v663h-133v54l133 40v144q0 211 118 324.5t319 113.5t299 -113l-82 -135l-197 178q-170 0 -239.5 -78.5t-69.5 -244.5v-201h299l281 33v-778l133 -17v-57h-414z" />
    <glyph glyph-name="fl" unicode="&#xfb02;" horiz-adv-x="1097" 
d="M583 1413q98 0 201 -59l123 22v-1302l133 -17v-57h-413v57l133 17v1134l-88 105q-47 35 -109 35q-225 0 -225 -285v-244h313v-82h-313v-663l197 -17v-57h-478v57l133 17v663h-133v54l133 40v187q0 170 107 282.5t286 112.5z" />
    <glyph glyph-name="NUL" horiz-adv-x="0" 
 />
    <glyph glyph-name="apple" horiz-adv-x="2048" 
d="M698 45q-34 0 -60 36t-26 75q0 77 64 126.5t135 49.5q72 0 137 -35l-18 -55q-56 32 -112 32t-97 -41l63 -124q-4 -29 -28 -46.5t-58 -17.5zM1427 122q0 -34 -35.5 -59.5t-74.5 -25.5q-77 0 -126.5 62.5t-49.5 135.5t35 138l55 -19q-33 -55 -33 -111t41 -98l125 64
q29 -4 46 -28.5t17 -58.5zM1620 188h-90v97l31 149l-170 -47l-355 49l49 -354l-47 -170l150 31h96v-90h-96l-150 30l37 -153v-203h-102v203l37 153l-150 -30h-96v90h96l150 -31l-47 170l49 354l-355 -49l-170 47l31 -149v-97h-90v97l31 149l-154 -37h-203v103h203l154 -37
l-31 149v97h90v-97l-31 -149l170 47l355 -49l-49 354l47 170l-150 -31h-96v90h96l150 -30l-37 153v203h102v-203l-37 -153l150 30h96v-90h-96l-150 31l47 -170l-49 -354l355 49l170 -47l-31 149v97h90v-97l-31 -149l154 37h203v-103h-203l-154 37l31 -149v-97zM907 642
q0 -54 -35 -118l-55 19q33 55 33 111t-41 98l-125 -64q-29 4 -46 28.5t-17 58.5t35.5 59.5t75.5 25.5t72 -17.5t55.5 -46t35.5 -64.5t12 -90zM1436 741q0 -77 -64 -126.5t-135 -49.5q-72 0 -137 35l18 55q56 -33 112 -33t97 42l-63 124q4 29 28 46.5t58 17.5t60 -36t26 -75z
" />
    </font>
</defs>
</svg>
