<?xml version="1.0" encoding="UTF-8" standalone="no"?>
<svg width="29px" height="29px" viewBox="0 0 29 29" version="1.1" xmlns="http://www.w3.org/2000/svg" xmlns:xlink="http://www.w3.org/1999/xlink" xmlns:sketch="http://www.bohemiancoding.com/sketch/ns">
    <!-- Generator: Sketch 3.2.2 (9983) - http://www.bohemiancoding.com/sketch -->
    <title>Slice 1</title>
    <desc>Created with Sketch.</desc>
    <defs></defs>
    <g id="Page-1" stroke="none" stroke-width="1" fill="none" fill-rule="evenodd" sketch:type="MSPage">
        <g id="instagram19" sketch:type="MSLayerGroup" transform="translate(9.000000, 9.000000)">
            <g id="Group"></g>
        </g>
        <path d="M28.945,11.929 L28.945,23.489 C28.945,26.5 26.497,28.947 23.488,28.947 L6.164,28.947 C3.154,28.947 0.707,26.5 0.707,23.489 L0.707,11.929 L0.707,6.165 C0.707,3.155 3.154,0.708 6.164,0.708 L23.487,0.708 C26.497,0.708 28.945,3.155 28.945,6.165 L28.945,11.929 Z M25.678,8.746 L25.678,4.58 L25.678,3.96 L25.055,3.962 L20.891,3.975 L20.907,8.762 L25.678,8.746 Z M22.549,14.826 C22.549,19.083 19.085,22.549 14.826,22.549 C10.567,22.549 7.104,19.083 7.104,14.826 C7.104,13.802 7.308,12.823 7.672,11.929 L3.457,11.929 L3.457,23.489 C3.457,24.983 4.67,26.193 6.163,26.193 L23.486,26.193 C24.977,26.193 26.192,24.983 26.192,23.489 L26.192,11.929 L21.975,11.929 C22.342,12.823 22.549,13.802 22.549,14.826 Z M14.825,19.796 C17.564,19.796 19.797,17.567 19.797,14.826 C19.797,13.744 19.443,12.745 18.857,11.929 C17.954,10.677 16.486,9.856 14.828,9.856 C13.169,9.856 11.702,10.676 10.797,11.928 C10.209,12.744 9.858,13.743 9.857,14.825 C9.854,17.566 12.085,19.796 14.825,19.796 Z" id="Path" fill="#656565" sketch:type="MSShapeGroup"></path>
    </g>
</svg>