<?xml version="1.0" encoding="UTF-8" standalone="no"?>
<svg width="6px" height="5px" viewBox="0 0 6 5" version="1.1" xmlns="http://www.w3.org/2000/svg" xmlns:xlink="http://www.w3.org/1999/xlink" xmlns:sketch="http://www.bohemiancoding.com/sketch/ns">
    <!-- Generator: Sketch 3.2.2 (9983) - http://www.bohemiancoding.com/sketch -->
    <title>Slice 1</title>
    <desc>Created with Sketch.</desc>
    <defs></defs>
    <g id="Page-1" stroke="none" stroke-width="1" fill="none" fill-rule="evenodd" sketch:type="MSPage">
        <g id="twitter" sketch:type="MSLayerGroup" transform="translate(-1.000000, -1.000000)" fill="#BFBFB5">
            <g id="layer1" transform="translate(0.679470, 0.692660)" sketch:type="MSShapeGroup">
                <path d="M6.09485835,0.862831414 C5.88242026,0.957068516 5.65407414,1.02073059 5.41446793,1.04937136 C5.65904024,0.902760564 5.84690808,0.670603511 5.93534208,0.393955228 C5.70641855,0.529738577 5.45289614,0.628306457 5.18303273,0.681430625 C4.96695676,0.451178872 4.65906917,0.30734 4.3183255,0.30734 C3.66409315,0.30734 3.13363359,0.837741653 3.13363359,1.49197434 C3.13363359,1.58482565 3.14411392,1.67525181 3.1643241,1.76195357 C2.17974155,1.71255415 1.30683503,1.24090603 0.722529785,0.524166441 C0.620554991,0.699128805 0.562118608,0.902616462 0.562118608,1.11973178 C0.562118608,1.530749 0.771265266,1.89334857 1.0891423,2.10578632 C0.894951525,2.09963677 0.712280423,2.04633954 0.552562143,1.957617 C0.552427469,1.96255382 0.552427469,1.96751958 0.552427469,1.97251464 C0.552427469,2.546484 0.960788916,3.0252631 1.5027392,3.1341672 C1.40333398,3.16124879 1.29867413,3.17571345 1.19063597,3.17571345 C1.1142994,3.17571345 1.04009943,3.16826463 0.967746846,3.15446392 C1.11851469,3.6251013 1.55600747,3.96760617 2.07442752,3.97713368 C1.66898243,4.29489557 1.1581846,4.48429397 0.603126159,4.48429397 C0.507502925,4.48429397 0.41320825,4.47866392 0.32053,4.46772133 C0.844811058,4.80387463 1.46751556,5 2.1365304,5 C4.31556334,5 5.50718457,3.19485567 5.50718457,1.62931688 C5.50718457,1.57795424 5.50602974,1.52688015 5.50374903,1.47603736 C5.73518423,1.30904332 5.93601578,1.10041616 6.09483915,0.862831414 L6.09485835,0.862831414 Z" id="path5"></path>
            </g>
        </g>
    </g>
</svg>